<svg width="96" height="120" viewBox="0 0 96 120" fill="none" xmlns="http://www.w3.org/2000/svg">
<path fill-rule="evenodd" clip-rule="evenodd" d="M68.1022 14.7224L59.9468 29.7866C59.6113 30.4036 58.8448 30.63 58.236 30.2926C57.626 29.9602 57.3988 29.1888 57.7343 28.5717L65.8891 13.5044C66.2246 12.8905 66.991 12.6641 67.6004 12.9984C68.2099 13.3333 68.4346 14.1053 68.1022 14.7224ZM50.6679 30.6827C45.9598 30.6827 44.664 27.567 44.3316 26.0105C44.19 25.3971 44.1869 24.9655 44.1869 24.7584C44.1869 24.0235 44.7779 23.4281 45.5043 23.4281C46.1845 23.4281 46.7379 23.946 46.8124 24.6064C46.8124 24.6126 46.818 24.6157 46.818 24.6213C46.8247 24.6616 46.8303 24.7336 46.837 24.8291C46.8457 24.9035 46.858 24.9785 46.858 25.0585C46.858 25.1112 46.8617 25.1639 46.8641 25.2204C46.8771 25.3283 46.8894 25.4461 46.9103 25.567C46.9595 25.825 47.0457 26.1128 47.1904 26.4043C47.2089 26.4322 47.2212 26.4607 47.2366 26.488C47.6829 27.3246 48.6001 28.1463 50.373 28.2399C53.041 28.3168 53.8284 27.4176 53.8382 26.3013C53.7366 25.0095 53.6597 24.0787 50.5786 22.8111C46.9749 21.3289 44.6763 20.4328 44.6763 17.3301C44.6763 14.2294 47.5351 12.9488 50.1539 12.9488C50.8132 12.9488 51.3851 13.0269 51.896 13.1509C52.9179 13.355 54.05 13.7773 54.8964 14.6145V14.6077C55.1119 14.7999 55.3396 15.0827 55.5397 15.4226C55.5613 15.4579 55.5828 15.4914 55.6013 15.5255C55.6536 15.6185 55.7028 15.7177 55.7521 15.8201C55.7675 15.8542 55.7829 15.8852 55.7983 15.9193C56.0568 16.4954 56.2415 17.1776 56.2415 17.8753C56.2415 17.9993 56.2569 18.207 56.2138 18.4396C56.2107 18.4607 56.2046 18.4799 56.2015 18.5016C56.1892 18.5543 56.1707 18.607 56.1491 18.6629C56.1399 18.6877 56.1338 18.7094 56.1214 18.7311C56.1153 18.7497 56.1061 18.7683 56.0937 18.7906C55.8752 19.2235 55.4351 19.5249 54.918 19.5249C54.4624 19.5249 54.0691 19.2923 53.8314 18.9419C53.8136 18.9103 53.7951 18.8799 53.7791 18.8483C53.7422 18.7875 53.712 18.7187 53.6868 18.6498C53.6843 18.6418 53.6782 18.6325 53.6782 18.6232C53.6658 18.5891 53.6535 18.5512 53.6474 18.5177C53.5852 18.3069 53.5581 18.0805 53.5581 17.8914C53.5581 17.8505 53.555 17.8132 53.552 17.7729C53.552 17.7103 53.5483 17.6551 53.5427 17.5968C53.5027 17.2675 53.4067 17.0077 53.2903 16.7968C53.278 16.7751 53.2657 16.7534 53.2534 16.7317C53.2288 16.6945 53.2072 16.6604 53.1826 16.6226C52.5239 15.6681 51.1173 15.1838 50.0898 15.1838C48.7048 15.1838 47.2181 15.9503 47.2181 17.3581C47.2181 18.7621 48.5509 19.6055 50.8095 20.3559C55.2227 21.9838 56.1338 23.301 56.5308 24.9072C56.9679 26.6647 56.2107 30.6827 50.6679 30.6827ZM75.2757 15.972C72.8324 4.92891 61.796 -1.9945 50.6316 0.513406C39.4634 3.02565 32.394 14.0123 34.8403 25.056C35.6468 28.705 37.392 31.9044 39.7737 34.4619C40.9957 35.7798 38.2717 43.0461 39.786 43.995C41.0326 44.7764 46.4794 39.3016 47.8706 39.8039C51.462 41.097 55.4658 41.4157 59.4851 40.514C70.6501 38.0049 77.7221 27.0182 75.2757 15.972Z" fill="#10CBB4"/>
<path fill-rule="evenodd" clip-rule="evenodd" d="M90.1935 66.9582C90.6761 66.3506 91.3776 65.4677 92.0631 65.6876C92.6475 65.8749 93.0305 66.8549 93.2543 67.4276C93.2819 67.4982 93.3071 67.5626 93.3299 67.6186C93.3299 67.6186 93.9254 69.047 93.4981 69.9092C93.0715 70.7713 90.0108 73.4887 89.307 74.0317C88.6094 74.5734 86.0969 76.132 83.8833 76.6762C82.1238 77.1073 80.1033 76.9184 78.6178 75.83C77.6655 75.1366 76.9959 74.1179 76.5911 73.0234C76.1831 71.9319 76.0274 70.7677 75.9558 69.6059C75.6786 64.8462 76.9673 59.7136 79.2749 55.5202C81.3016 51.8269 82.1182 50.7691 84.5498 48.7494C86.3616 47.2391 88.3547 46.8783 90.6866 47.2691C91.3499 47.3797 91.9946 47.6243 92.542 48.0065C96.2448 50.5771 93.987 55.9782 91.9852 58.9346C90.534 61.0747 88.4294 62.6303 86.0377 63.6331C85.2343 63.9724 83.712 64.5656 82.2452 64.5992C82.1861 64.6016 81.6006 66.112 81.4729 67.001C81.3272 68.0289 81.4175 69.6273 82.1456 70.2999C83.8646 71.8989 86.8848 69.9299 88.2239 68.814C88.3462 68.7118 88.4701 68.6108 88.5941 68.5097C89.0818 68.1122 89.5706 67.7137 89.9703 67.234C90.0378 67.1541 90.1126 67.06 90.1935 66.9582ZM88.1118 52.1424C87.5792 52.2739 87.137 52.6377 86.7509 53.0223C84.9203 54.8659 83.4442 58.3843 83.1826 59.7998C83.1897 59.7556 83.2471 59.7463 83.3846 59.7239C83.6105 59.6871 84.0525 59.6151 84.8425 59.2953C85.3028 59.1058 85.7356 58.8948 86.1561 58.6289C87.0716 58.0516 87.928 57.3607 88.582 56.501C89.2728 55.5935 89.8956 54.2398 89.6745 53.078C89.5343 52.3222 88.8804 51.9523 88.1118 52.1424Z" fill="#8B3D99"/>
<path fill-rule="evenodd" clip-rule="evenodd" d="M74.2812 50.4809C72.8304 48.4983 69.8146 48.7734 68.2004 49.6535C66.5794 50.5336 64.8358 52.9847 64.5343 53.7161L64.8459 51.5469C64.8459 51.5469 65.2945 50.8094 63.451 50.3693C61.6107 49.9293 60.6526 49.8053 60.2379 51.299C60.0189 52.0873 57.9778 62.6122 56.0997 72.372C55.6628 72.7433 55.074 73.1034 54.2961 73.333C52.072 73.9932 54.3712 65.0753 54.3712 65.0753C54.3712 65.0753 56.2862 56.3494 56.5891 55.0475C56.8932 53.7425 56.768 52.4837 55.3099 52.0518C53.8518 51.623 52.4131 51.5428 51.9781 52.9095L51.5432 54.2768C51.5432 54.2768 49.9818 52.2369 46.8002 52.6966C43.6186 53.1569 39.7643 57.5427 37.4645 64.4157C35.1653 71.2882 36.0007 75.3809 36.4012 77.0623C36.7986 78.7437 37.7242 81.0013 40.9683 81.4789C44.2131 81.9608 46.6125 79.6044 47.8578 76.5409C47.8578 76.5409 47.9173 79.1102 50.1414 79.842C51.6169 80.3248 53.4817 79.5321 54.8951 78.6418C54.509 80.6544 54.1538 82.5088 53.8523 84.0837C46.7831 85.1108 38.3247 86.3896 36.2492 86.833C35.5394 86.9836 34.5802 87.1568 33.4569 87.3595C32.0827 87.6076 30.4626 87.9 28.753 88.2499L28.7574 88.2371C28.7593 88.2318 28.7612 88.226 28.7629 88.2188C28.7629 88.2188 37.1148 58.2453 37.3368 57.3985C37.3528 57.3366 37.3716 57.2663 37.3923 57.1889L37.3926 57.1876C37.6542 56.2087 38.2162 54.1054 37.3368 53.798C36.3879 53.4698 34.9607 53.6156 33.6105 54.4245C32.2579 55.2341 31.3454 56.4065 30.954 57.6249C30.8411 57.9728 30.6605 58.5396 30.4474 59.2086C29.9159 60.8773 29.1818 63.1816 28.7906 64.3086C28.2419 65.8899 26.3985 71.1554 25.0644 73.202C23.6032 75.4452 21.7413 77.0612 20.3542 76.0686C19.2697 75.2932 19.8061 72.8335 20.1328 71.4011C20.3824 70.317 20.9883 68.3706 21.4564 66.8665C21.6071 66.3825 21.7436 65.9441 21.8492 65.5952C21.9165 65.3767 21.9887 65.1478 22.0633 64.9117L22.0641 64.9093C22.4782 63.5981 22.9636 62.061 23.0576 60.816C23.1655 59.3495 21.9972 58.025 20.9214 57.8116C19.8492 57.5945 18.7118 57.3985 18.2716 58.2453C17.9957 58.7744 18.0066 59.4742 18.0182 60.2206C18.0252 60.6686 18.0325 61.1335 17.9781 61.5883C17.8798 62.404 17.5622 63.1919 17.2498 63.9667C17.1429 64.2319 17.0366 64.4956 16.9399 64.7583C16.5207 65.906 16.1076 67.0617 15.7254 68.2255C15.1582 69.9495 14.6502 71.6982 14.2648 73.4724C13.8888 75.2001 13.525 77.0357 13.6878 78.8093C13.8117 80.1865 14.3382 81.5823 15.3894 82.4725C16.2587 83.207 17.4294 83.5389 18.5607 83.4645C20.4904 83.3379 22.2685 82.0414 23.6001 80.7107C23.6642 80.6463 23.7326 80.5785 23.8039 80.5077L23.8047 80.507C24.4129 79.9036 25.2385 79.0846 25.4922 78.3137C25.1505 79.3595 24.8056 80.4043 24.4607 81.449C23.5834 84.1062 22.7062 86.7631 21.8831 89.4347C21.8338 89.5929 21.7845 89.7511 21.6766 89.8721C21.5533 90.0185 21.3714 90.0923 21.1926 90.1643C21.0715 90.2125 20.9508 90.2627 20.8297 90.3132L20.7956 90.3274C19.8523 90.6531 18.9553 91.0104 18.1446 91.3913C16.1014 92.3597 14.3844 93.4503 13.0349 94.4428C11.1298 95.74 9.35489 97.222 7.78586 98.9118C5.75505 101.092 4.08429 103.629 2.95976 106.393C1.91106 108.957 1.04547 111.975 1.76372 114.71C2.45668 117.355 4.65457 119.344 7.37896 119.638C9.29016 119.849 11.2316 119.272 12.89 118.295C14.5454 117.316 15.9442 115.944 17.2019 114.483C20.9035 110.176 23.2888 105.037 25.1346 99.7121C25.6161 98.3231 26.0748 96.9242 26.5311 95.526C32.1038 93.9782 45.566 91.4416 49.0395 90.8392C49.7646 90.7142 51.0655 90.5185 52.709 90.2819C52.6378 90.9864 52.6197 91.889 52.8722 92.5071C53.346 93.6561 54.9639 94.3279 56.5284 92.5071C57.0014 91.9552 57.3854 90.8929 57.7059 89.5792C61.8293 89.0088 66.4962 88.3795 69.854 87.9267L69.8567 87.9263C71.4692 87.7089 72.7795 87.5322 73.5824 87.4223C74.6739 87.2744 76.0945 87.1264 77.6084 86.9686C81.7202 86.5402 86.5202 86.04 87.279 85.2765C88.3209 84.2275 88.0989 82.7951 87.5533 81.9105C87.0046 81.0302 86.2932 80.4781 82.8407 80.5904C79.8586 80.6836 70.2134 81.8903 65.5362 82.4754L65.5208 82.4774C64.7907 82.5687 64.1826 82.6448 63.741 82.6989C62.9447 82.7956 61.1091 83.047 58.7382 83.3825C58.7869 83.0031 58.8338 82.6305 58.8793 82.2685L58.8796 82.2668C59.0024 81.2914 59.1153 80.3941 59.2263 79.655C59.7667 76.0331 59.9551 75.1748 59.9551 75.1748C59.9551 75.1748 61.284 77.1512 64.3684 77.6408C67.9648 78.2116 70.5308 75.577 72.4277 71.8311C74.3849 67.9774 75.6478 62.4876 75.8614 59.2921C76.0719 56.2069 75.7357 52.461 74.2812 50.4809ZM70.6596 59.4284C70.4931 61.7122 69.9371 63.9217 69.1806 66.0717C68.5391 67.8969 67.8423 69.8026 66.482 71.1959C65.292 72.4205 62.7756 73.2287 61.3971 71.7047C61.3971 71.7047 62.0499 68.1324 63.0175 64.5229C63.9317 61.108 65.0564 57.0839 67.4182 55.3832C70.3423 53.2692 70.8136 57.3404 70.6596 59.4284ZM48.1426 68.4005C49.2909 64.9735 50.2008 61.7595 50.5888 59.8097C50.9956 57.7618 49.55 57.3243 48.3053 57.8049C46.7564 58.401 44.6543 59.5814 42.949 63.4131C42.0485 65.4431 41.5316 67.5465 41.4001 69.3254C41.2687 71.1061 41.541 74.2838 43.6562 74.6873C45.5486 75.0452 46.9129 72.0625 48.1426 68.4005ZM18.4744 100.546C18.7179 99.964 18.9522 99.3777 19.1711 98.7878C19.1873 98.7427 19.2163 98.6375 19.253 98.5042C19.3628 98.1055 19.5418 97.4557 19.655 97.4143C19.655 97.4143 14.5971 99.2872 10.7476 104.126C7.67797 107.983 6.26306 111.913 7.37896 113.277C8.77537 114.99 11.4474 112.164 12.3413 111.137C14.1532 109.057 15.5466 106.65 16.7858 104.191C17.3863 102.993 17.9565 101.781 18.4744 100.546Z" fill="#8B3D99"/>
</svg>
