<svg width="321" height="387" viewBox="0 0 321 387" fill="none" xmlns="http://www.w3.org/2000/svg">
<g clip-path="url(#clip0_11493_12454)">
<path d="M18.914 133.636L37.3473 123.649C77.7363 101.773 112.161 42.6407 118.916 0.0200339L100.483 10.0072C93.7278 52.6279 59.293 111.77 18.914 133.636Z" fill="#008C7B"/>
<path d="M118.915 0.0200187C158.724 32.2332 239.382 60.9639 285.285 46.3734C287.147 45.7829 288.948 45.1225 290.689 44.3819C294.532 56.4306 367.574 285.325 272.046 376.411C132.755 359.919 24.1473 142.332 18.4332 130.874C20.3045 130.464 22.1759 129.954 24.0272 129.363C69.9402 114.773 111.42 47.244 118.915 0V0.0200187ZM260.988 349.221C322.502 283.154 295.062 137.409 279.721 75.5544C236.05 81.2585 176.017 62.2048 133.556 35.9859C119.706 80.0976 87.1426 128.573 49.3554 148.747C82.059 204.998 165.949 332.89 260.988 349.221Z" fill="#10CBB4"/>
<path d="M133.556 35.9959C119.706 80.1076 87.143 128.582 49.3558 148.757C82.0594 205.007 165.95 332.899 260.988 349.231C322.502 283.164 295.063 137.419 279.722 75.5643C236.05 81.2684 176.017 62.2147 133.556 35.9959Z" fill="#12DEC4"/>
<path d="M18.4333 130.894L0 140.881C5.71411 152.33 114.322 369.926 253.612 386.418L272.056 376.431C132.766 359.939 24.1574 142.352 18.4433 130.894H18.4333Z" fill="#008C7B"/>
<path d="M244.396 125.41C246.738 125.22 249.26 126.361 251.441 128.903C255.855 134.037 257.336 143.033 254.744 149.237L209.661 255.604C207.95 259.697 205.168 262.399 202.156 263.36C199.334 264.26 196.212 263.63 193.5 261.238L143.934 217.266C137.539 211.532 135.788 200.014 140.111 191.828C142.333 187.565 145.695 185.053 149.268 184.463C152.49 183.932 155.893 184.963 158.805 187.685L196.192 222.77L238.242 130.444C239.673 127.312 241.925 125.621 244.386 125.42L244.396 125.41Z" fill="white"/>
</g>
<defs>
<clipPath id="clip0_11493_12454">
<rect width="320.769" height="386.14" fill="white" transform="scale(1.00072)"/>
</clipPath>
</defs>
</svg>
