<svg width="717" height="1300" viewBox="0 0 717 1300" fill="none" xmlns="http://www.w3.org/2000/svg">
<g clip-path="url(#clip0_11126_12444)">
<path d="M117.005 450.127C85.325 507.571 67.8291 596.95 65.9714 711.662C76.4514 723.039 97.8485 762.657 96.7666 803.653C96.0563 830.746 78.4949 829.522 74.7357 811.74C73.1402 804.21 71.8835 793.893 70.8234 788.461C68.3537 775.75 59.2069 777.029 60.2014 790.756C62.7476 825.653 63.3377 853.315 43.405 853.315C17.2542 853.304 -0.0340193 823.347 -0.00123519 797.565C0.0315489 777.652 1.41941 740.176 23.1007 709.826C24.3246 708.121 25.5267 706.656 26.7288 705.367C29.8323 551.55 60.5401 441.69 117.005 383.82V450.127Z" fill="#DE4A65"/>
<path d="M117.005 383.832V450.106C114.065 455.428 111.246 461.035 108.557 466.904C102.744 451.581 96.7113 434.226 91.4877 416.182C99.3012 404.04 107.803 393.252 117.005 383.832Z" fill="#973043"/>
<path d="M599.992 450.127C631.672 507.571 649.168 596.95 651.026 711.662C640.546 723.039 619.149 762.657 620.231 803.653C620.941 830.746 638.502 829.522 642.262 811.74C643.857 804.21 645.114 793.893 646.174 788.461C648.644 775.75 657.79 777.029 656.796 790.756C654.25 825.653 653.66 853.315 673.592 853.315C699.743 853.315 717.031 823.347 716.998 797.565C716.966 777.652 715.578 740.176 693.897 709.826C692.673 708.121 691.471 706.656 690.269 705.367C687.165 551.55 656.457 441.69 599.992 383.82V450.127Z" fill="#DE4A65"/>
<path d="M599.992 383.832V450.106C602.932 455.428 605.751 461.035 608.439 466.904C614.253 451.581 620.285 434.226 625.509 416.182C617.695 404.04 609.193 393.252 599.992 383.832Z" fill="#973043"/>
<path d="M257.212 1148.66C256.393 1176.24 255.879 1208.69 257.562 1247.85C258.677 1273.63 253.464 1300 231.979 1300C216.931 1300 199.086 1299.67 180.814 1299.67C136.949 1299.67 131.179 1289.04 131.179 1266.92C131.179 1229.4 200.474 1211.04 216.407 1182.47C220.68 1054.98 238.569 913.644 249.606 836.08C254.732 800.024 258.382 777.751 258.502 777.029L297.318 783.445C297.209 784.09 294.226 802.33 289.876 832.375C280.085 900.004 263.398 1027.46 257.212 1148.66Z" fill="#DE4A65"/>
<path d="M297.318 783.445C297.209 784.09 294.226 802.33 289.876 832.375C276.063 833.369 262.622 834.615 249.606 836.08C254.732 800.024 258.382 777.751 258.502 777.029L297.318 783.445Z" fill="#973043"/>
<path d="M459.785 1148.66C460.605 1176.24 461.118 1208.69 459.435 1247.85C458.321 1273.63 463.533 1300 485.018 1300C500.066 1300 517.911 1299.67 536.183 1299.67C580.048 1299.67 585.818 1289.04 585.818 1266.92C585.818 1229.4 516.523 1211.04 500.59 1182.47C496.317 1054.98 478.428 913.644 467.391 836.08C462.266 800.024 458.616 777.751 458.495 777.029L419.679 783.445C419.788 784.09 422.772 802.33 427.121 832.375C436.913 900.004 453.6 1027.46 459.785 1148.66Z" fill="#DE4A65"/>
<path d="M419.679 783.445C419.788 784.09 422.772 802.33 427.121 832.375C440.934 833.369 454.376 834.615 467.391 836.08C462.266 800.024 458.616 777.751 458.495 777.029L419.679 783.445Z" fill="#973043"/>
<path d="M556.281 0H160.719C136.579 0 117.007 19.5741 117.007 43.7166V741.313C117.007 771.488 141.475 795.959 171.647 795.959H545.353C575.526 795.959 599.993 771.488 599.993 741.313V43.7166C599.993 19.5741 580.421 0 556.281 0Z" fill="#DE4A65"/>
<path d="M535.311 65.8589H181.69C163.582 65.8589 148.906 80.5367 148.906 98.6463V673.596C148.906 693.52 165.047 709.662 184.969 709.662H532.032C551.954 709.662 568.095 693.52 568.095 673.596V98.6463C568.095 80.5367 553.419 65.8589 535.311 65.8589Z" fill="#742384"/>
<path d="M405.147 26.0874H311.843C306.969 26.0874 303.013 30.0438 303.013 34.9182C303.013 39.7926 306.969 43.7489 311.843 43.7489H405.147C410.021 43.7489 413.977 39.7926 413.977 34.9182C413.977 30.0438 410.021 26.0874 405.147 26.0874Z" fill="#973043"/>
<path d="M358.505 768.276C369.966 768.276 379.257 758.983 379.257 747.521C379.257 736.059 369.966 726.767 358.505 726.767C347.044 726.767 337.752 736.059 337.752 747.521C337.752 758.983 347.044 768.276 358.505 768.276Z" fill="#973043"/>
<path fill-rule="evenodd" clip-rule="evenodd" d="M400.359 398.695L383.377 430.291C382.678 431.592 381.071 432.051 379.815 431.351C378.536 430.652 378.066 429.034 378.777 427.734L395.759 396.138C396.458 394.837 398.065 394.378 399.321 395.077C400.6 395.777 401.07 397.394 400.359 398.695ZM364.035 432.16C354.232 432.16 351.533 425.624 350.834 422.357C350.549 421.078 350.528 420.16 350.528 419.734C350.528 418.182 351.752 416.947 353.281 416.947C354.702 416.947 355.85 418.029 356.003 419.417V419.449C356.003 419.537 356.024 419.679 356.035 419.887C356.057 420.051 356.068 420.193 356.068 420.367V420.706C356.101 420.936 356.123 421.176 356.156 421.428C356.265 421.963 356.44 422.575 356.735 423.187C356.767 423.242 356.811 423.318 356.822 423.362C357.762 425.122 359.663 426.838 363.357 427.034C368.919 427.198 370.548 425.307 370.57 422.969C370.351 420.247 370.187 418.313 363.783 415.646C356.287 412.531 351.478 410.662 351.478 404.149C351.478 397.635 357.434 394.957 362.887 394.957C364.253 394.957 365.455 395.121 366.526 395.394C368.646 395.832 371.007 396.706 372.766 398.476C373.214 398.87 373.684 399.471 374.099 400.17C374.154 400.247 374.187 400.312 374.231 400.389C374.34 400.586 374.449 400.782 374.536 401.001C374.569 401.078 374.613 401.143 374.624 401.22C375.159 402.422 375.542 403.864 375.542 405.318C375.542 405.569 375.575 406.017 375.487 406.509C375.487 406.542 375.465 406.597 375.465 406.64C375.443 406.75 375.389 406.859 375.356 406.979C375.334 407.034 375.323 407.067 375.301 407.121C375.301 407.154 375.269 407.198 375.247 407.252C374.799 408.149 373.881 408.804 372.799 408.804C371.848 408.804 371.04 408.324 370.537 407.58C370.504 407.504 370.46 407.449 370.428 407.384C370.351 407.252 370.285 407.11 370.231 406.968V406.914C370.209 406.837 370.176 406.772 370.154 406.695C370.023 406.247 369.979 405.777 369.979 405.384V405.132C369.979 405.001 369.979 404.881 369.958 404.75C369.87 404.061 369.673 403.504 369.433 403.078C369.411 403.023 369.378 402.99 369.357 402.935C369.302 402.859 369.269 402.793 369.215 402.706C367.848 400.706 364.92 399.679 362.778 399.679C359.904 399.679 356.789 401.285 356.789 404.225C356.789 407.165 359.565 408.936 364.275 410.509C373.466 413.93 375.378 416.684 376.198 420.051C377.115 423.734 375.531 432.16 363.98 432.16L364.035 432.193V432.16ZM415.309 401.307C410.217 378.148 387.224 363.634 363.969 368.88C340.703 374.148 325.972 397.187 331.065 420.357C332.737 428.007 336.376 434.717 341.337 440.073C343.894 442.849 338.212 458.084 341.359 460.062C343.949 461.701 355.303 450.226 358.199 451.286C365.685 454.007 374.034 454.663 382.394 452.783C405.66 447.526 420.391 424.477 415.298 401.329L415.32 401.307H415.309Z" fill="#10CBB4"/>
<path fill-rule="evenodd" clip-rule="evenodd" d="M400.556 471.943C403.922 470.085 410.195 469.517 413.222 473.67C416.249 477.823 416.948 485.67 416.511 492.151C416.063 498.84 413.429 510.359 409.353 518.436C405.397 526.294 400.054 531.824 392.568 530.622C386.645 529.671 383.847 526.086 383.432 525.529L383.377 525.452C383.377 525.452 382.984 527.255 381.869 534.84C381.541 536.961 381.225 539.715 380.842 542.644C385.792 541.944 389.606 541.42 391.257 541.201C398.054 540.36 423.855 537.004 431.046 536.775C438.236 536.545 439.711 537.693 440.87 539.551C442.006 541.409 442.476 544.403 440.291 546.6C438.127 548.797 420.216 549.944 411.758 551.103C406.599 551.802 391.388 553.857 378.678 555.617C378.012 558.371 377.203 560.6 376.23 561.748C372.974 565.562 369.597 564.163 368.625 561.748C368.1 560.447 368.144 558.568 368.286 557.092C364.865 557.595 362.155 557.988 360.636 558.261C356.932 558.906 347.796 560.622 338.168 562.557L335.545 563.092C327.218 564.797 318.869 566.655 313.744 568.076C312.793 571.005 311.831 573.945 310.826 576.852C306.979 588.022 302.007 598.798 294.292 607.836C291.669 610.896 288.751 613.771 285.32 615.825C281.867 617.88 277.823 619.082 273.846 618.645C268.163 618.033 263.595 613.858 262.153 608.317C260.655 602.579 262.459 596.24 264.655 590.885C266.994 585.093 270.48 579.77 274.709 575.191C277.987 571.65 281.67 568.535 285.648 565.814C288.456 563.726 292.03 561.442 296.303 559.409C297.997 558.622 299.865 557.857 301.821 557.179C302.095 557.07 302.379 556.95 302.652 556.841C303.034 556.699 303.406 556.535 303.657 556.229C303.876 555.977 303.985 555.638 304.094 555.311C306.488 547.507 309.099 539.769 311.613 531.988C311.023 533.791 308.946 535.726 307.668 537.004C304.892 539.791 301.188 542.513 297.166 542.775C294.806 542.939 292.358 542.239 290.565 540.687C288.369 538.819 287.276 535.9 287.025 533.004C286.686 529.277 287.44 525.43 288.227 521.813C289.036 518.086 290.085 514.414 291.265 510.807C292.052 508.359 292.915 505.955 293.8 503.539C294.587 501.375 295.691 499.189 295.964 496.905C296.27 494.37 295.658 491.67 296.576 489.889C297.494 488.107 299.865 488.523 302.095 488.971C304.346 489.419 306.772 492.195 306.542 495.266C306.313 498.348 304.936 502.282 304.029 505.288C303.133 508.293 301.133 514.468 300.444 517.474C299.756 520.479 298.641 525.638 300.914 527.266C303.81 529.354 307.679 525.955 310.717 521.255C313.493 516.96 317.339 505.922 318.487 502.599C319.623 499.288 322.169 491.135 323 488.588C323.809 486.031 325.721 483.572 328.54 481.878C331.349 480.184 334.332 479.878 336.31 480.566C338.288 481.266 336.758 486.337 336.31 488.118V488.227C335.84 489.878 331.382 505.998 327.032 521.725L326.344 524.206C322.246 539.015 318.443 552.764 318.443 552.764C318.443 552.797 318.443 552.819 318.421 552.841C324.901 551.507 330.748 550.578 334.037 549.868L334.474 549.78C338.376 548.994 349.763 547.223 361.401 545.485L364.188 545.07C366.384 544.742 368.581 544.425 370.701 544.119C371.335 540.829 372.067 536.928 372.876 532.709C369.925 534.578 366.035 536.239 362.964 535.223C358.319 533.693 358.21 528.294 358.21 528.294C355.62 534.72 350.615 539.66 343.851 538.655C337.086 537.649 335.163 532.917 334.332 529.387C333.502 525.857 331.764 517.277 336.54 502.862C341.326 488.446 349.369 479.255 355.992 478.282C362.614 477.309 365.871 481.593 365.871 481.593L366.767 478.73C367.663 475.867 370.668 476.031 373.706 476.927C376.744 477.823 376.995 480.468 376.372 483.211C376.099 484.348 375.258 488.195 374.362 492.282L373.826 494.752C372.744 499.659 371.761 504.239 371.761 504.239C371.761 504.239 366.974 522.928 371.597 521.55C373.214 521.07 374.438 520.305 375.356 519.54C375.608 518.239 375.859 516.927 376.088 515.616L376.842 511.671C380.274 493.769 383.552 476.785 383.967 475.342C384.831 472.216 386.831 472.468 390.655 473.397C394.491 474.315 393.573 475.867 393.573 475.867L392.928 480.413C393.562 478.883 397.19 473.735 400.578 471.899L400.556 471.921V471.943ZM299.417 572.109C299.417 572.109 288.872 576.032 280.85 586.175C274.468 594.273 271.518 602.514 273.835 605.377C276.752 608.973 282.304 603.038 284.183 600.896C287.965 596.546 290.861 591.486 293.45 586.328C294.707 583.814 295.898 581.267 296.98 578.677C297.483 577.453 297.975 576.229 298.434 574.994C298.565 574.611 299.133 572.218 299.439 572.12H299.417V572.109ZM434.619 470.063C438.4 466.894 442.553 466.14 447.405 466.948C448.793 467.178 450.126 467.681 451.273 468.5C458.989 473.899 454.279 485.211 450.126 491.419C447.099 495.9 442.717 499.179 437.733 501.277C436.061 501.998 432.892 503.233 429.832 503.31C429.701 503.31 428.488 506.479 428.226 508.348C427.92 510.512 428.117 513.856 429.625 515.255C433.209 518.6 439.504 514.479 442.29 512.14C443.547 511.08 444.88 510.086 445.93 508.829C446.902 507.66 448.629 505.047 450.279 505.594C451.645 506.042 452.486 508.578 452.923 509.638C452.923 509.638 454.169 512.621 453.262 514.447C452.377 516.25 445.995 521.944 444.542 523.081C443.088 524.217 437.854 527.485 433.242 528.622C429.57 529.518 425.363 529.124 422.27 526.84C420.292 525.387 418.894 523.244 418.041 520.96C417.2 518.676 416.872 516.228 416.708 513.802C416.129 503.812 418.817 493.058 423.614 484.26C427.844 476.522 429.537 474.293 434.608 470.063H434.619ZM363.86 493.255C364.701 488.96 361.696 488.042 359.106 489.047C355.882 490.293 351.5 492.774 347.949 500.818C346.08 505.08 344.998 509.485 344.725 513.212C344.452 516.949 345.009 523.616 349.424 524.458C353.369 525.212 356.21 518.949 358.778 511.266C361.172 504.086 363.062 497.342 363.871 493.255H363.849H363.86ZM405.671 492.468C405.998 488.096 405.004 479.55 398.928 483.998C393.999 487.561 391.661 495.998 389.748 503.157C387.738 510.731 386.372 518.217 386.372 518.217C389.246 521.419 394.48 519.714 396.972 517.157C399.813 514.239 401.256 510.228 402.6 506.414C404.184 501.9 405.332 497.277 405.682 492.49V492.468H405.671ZM445.285 479.156C445.001 477.572 443.635 476.796 442.028 477.2C440.914 477.473 439.996 478.238 439.187 479.058C435.373 482.927 432.291 490.304 431.756 493.277C431.789 493.025 432.565 493.299 435.209 492.217C436.16 491.823 437.067 491.375 437.941 490.818C439.854 489.615 441.624 488.151 443.001 486.359C444.443 484.446 445.733 481.604 445.285 479.178V479.156Z" fill="white"/>
<path d="M280.38 200.2C287.768 200.2 293.756 190.639 293.756 178.845C293.756 167.05 287.768 157.489 280.38 157.489C272.993 157.489 267.005 167.05 267.005 178.845C267.005 190.639 272.993 200.2 280.38 200.2Z" fill="#DE4A65"/>
<path d="M358.505 273.83C371.445 273.83 381.935 260.731 381.935 244.572C381.935 228.414 371.445 215.315 358.505 215.315C345.565 215.315 335.075 228.414 335.075 244.572C335.075 260.731 345.565 273.83 358.505 273.83Z" fill="#3F0D4A"/>
<path d="M381.684 248.824C380.044 262.966 370.286 273.83 358.505 273.83C352.386 273.83 346.823 270.901 342.649 266.125C344.965 256.387 353.304 248.256 363.172 246.146C368.472 245.021 375.925 245.272 381.684 248.824Z" fill="#DE4A65"/>
<path d="M436.619 200.2C444.007 200.2 449.995 190.639 449.995 178.845C449.995 167.05 444.007 157.489 436.619 157.489C429.232 157.489 423.243 167.05 423.243 178.845C423.243 190.639 429.232 200.2 436.619 200.2Z" fill="#DE4A65"/>
<path d="M247.673 121.456C255.88 105.041 275.715 97.3902 293.298 100.374C299.079 101.434 305.527 102.669 309.439 107.478C311.624 109.991 309.592 114.188 306.302 114.09C302.27 114.21 298.882 112.418 295.123 111.467C289.397 110.057 283.31 109.729 277.507 110.757C268.087 112.276 259.727 117.456 254.252 125.347C251.52 129.26 245.553 125.729 247.663 121.456H247.673Z" fill="#DE4A65"/>
<path d="M410.064 120.647C413.965 123.15 416.337 124.8 420.686 126.428C430.357 129.598 440.521 130.177 450.695 131.095C455.962 131.521 461.273 131.849 466.595 132.33C471.196 132.767 471.272 139.434 466.693 139.98C457.251 140.975 447.58 141.379 438.073 140.931C430.237 140.549 422.413 139.674 414.654 136.702C409.124 134.592 403.529 130.111 403.081 123.762C402.939 119.936 407.288 118.166 410.064 120.636V120.647Z" fill="#DE4A65"/>
</g>
<defs>
<clipPath id="clip0_11126_12444">
<rect width="717" height="1300" fill="white"/>
</clipPath>
</defs>
</svg>
