<svg width="870" height="1300" viewBox="0 0 870 1300" fill="none" xmlns="http://www.w3.org/2000/svg">
<g clip-path="url(#clip0_11135_14879)">
<g style="mix-blend-mode:multiply">
<path d="M313.517 1300C486.668 1300 627.034 1278.49 627.034 1251.96C627.034 1225.43 486.668 1203.93 313.517 1203.93C140.366 1203.93 0 1225.43 0 1251.96C0 1278.49 140.366 1300 313.517 1300Z" fill="#CECAD6"/>
</g>
<path d="M424.007 1198.03C418.564 1196.82 413.785 1193.17 411.334 1187.68C405.059 1173.68 403.854 1144.96 402.234 1095.39C401.444 1070.92 400.613 1045.57 398.743 1023.21C391.679 937.947 378.216 867.016 378.091 866.31C376.18 856.378 382.704 846.78 392.635 844.868C402.524 842.957 412.165 849.481 414.076 859.412C414.658 862.362 428.038 932.877 435.268 1020.18C437.18 1043.45 438.052 1069.25 438.842 1094.19C439.798 1123.85 441.127 1164.45 444.784 1172.72C448.856 1181.95 444.701 1192.79 435.434 1196.9C431.695 1198.57 427.706 1198.86 424.007 1198.07V1198.03Z" fill="#DE4A65"/>
<path d="M414.035 859.371C412.124 849.44 402.483 842.916 392.594 844.828C382.663 846.739 376.139 856.338 378.05 866.269C378.133 866.643 381.79 886.131 386.319 916.631L426.75 941.189C420.559 893.777 414.409 861.324 414.035 859.371Z" fill="#973043"/>
<path d="M402.563 1106.49C402.563 1106.49 398.366 1156.77 399.239 1199.77C399.862 1232.73 417.48 1242.03 446.152 1247.02C475.696 1252.13 478.023 1237.55 463.812 1202.68C456.956 1185.9 441.041 1167.74 433.852 1139.44C428.284 1117.54 414.572 1081.26 402.563 1106.53V1106.49Z" fill="#DE4A65"/>
<path d="M197.084 1201.73C202.527 1200.48 207.264 1196.78 209.674 1191.26C215.824 1177.21 216.821 1148.46 218.026 1098.88C218.65 1074.41 219.273 1049.06 220.935 1026.71C227.334 941.397 240.216 870.342 240.34 869.635C242.169 859.704 235.562 850.147 225.63 848.319C215.699 846.49 206.142 853.056 204.314 863.028C203.774 865.979 190.934 936.619 184.41 1023.96C182.665 1047.27 182.041 1073.04 181.418 1097.97C180.67 1127.64 179.673 1168.23 176.099 1176.55C172.11 1185.81 176.349 1196.62 185.615 1200.65C189.355 1202.27 193.385 1202.56 197.042 1201.69L197.084 1201.73Z" fill="#DE4A65"/>
<path d="M204.314 863.028C206.142 853.056 215.7 846.49 225.631 848.319C235.562 850.147 242.169 859.704 240.34 869.635C240.257 870.009 236.725 889.498 232.487 920.081L192.264 944.971C198.081 897.517 203.982 865.023 204.314 863.028Z" fill="#973043"/>
<path d="M217.778 1110.02C217.778 1110.02 222.349 1160.26 221.85 1203.26C221.476 1236.26 203.941 1245.69 175.311 1250.84C145.808 1256.2 143.356 1241.62 157.318 1206.63C164.05 1189.76 179.84 1171.52 186.779 1143.14C192.14 1121.2 205.603 1084.84 217.778 1109.98V1110.02Z" fill="#DE4A65"/>
<path d="M486.544 949.459C480.892 949.459 471.335 946.924 470.38 929.846C470.13 925.774 471.543 921.992 473.995 919.125C475.2 907.698 477.153 883.681 479.895 833.152C488.04 683.686 426.707 643.795 426.084 643.421C419.062 639.058 416.735 629.792 421.015 622.686C425.295 615.581 434.353 613.212 441.542 617.368C444.7 619.238 519.371 664.904 510.104 834.773C508.027 872.711 506.157 900.468 504.536 917.297C502.749 935.913 501.461 949.376 486.502 949.376L486.544 949.459Z" fill="#DE4A65"/>
<path d="M166.919 814.869C167.708 757.318 181.545 559.859 185.867 450.907C190.479 334.6 251.354 268.032 314.307 273.725C314.307 273.725 480.353 330.32 517.792 341.207C517.792 341.207 544.469 348.77 543.846 380.516C543.513 397.553 474.535 476.379 468.759 581.965C463.773 673.174 466.308 762.513 463.482 788.068C457.416 843.208 450.601 884.387 394.587 880.066C352.411 876.825 263.571 877.863 206.477 871.423C209.012 871.714 211.588 871.963 214.248 872.254C199.87 870.093 166.295 860.162 166.919 814.869Z" fill="#DE4A65"/>
<path d="M198.496 775.518C199.078 728.688 211.461 568.003 213.788 479.287C214.951 434.908 229.993 383.383 249.772 357.869C269.51 332.356 292.073 327.826 320.08 335.223C320.08 335.223 451.221 378.23 482.303 387.123C482.303 387.123 504.451 393.314 503.952 419.16C503.703 432.997 453.174 500.313 448.52 586.286C444.49 660.5 446.692 733.217 444.407 754.035C439.462 798.912 433.852 832.404 387.396 828.831C352.45 826.13 278.776 826.878 231.448 821.559C233.567 821.808 235.686 822.016 237.888 822.224C225.963 820.437 198.122 812.334 198.579 775.477L198.496 775.518Z" fill="#742384"/>
<path d="M145.187 408.273C151.046 367.468 161.351 324.211 194.095 295.374C225.218 267.949 274.084 260.469 313.56 273.267C275.331 270.691 239.595 302.188 223.224 324.793C197.004 361.027 187.114 406.86 185.867 450.906C182.751 559.9 167.709 757.359 166.919 814.91C166.462 847.155 185.992 866.768 213.542 872.17C187.446 867.018 155.908 868.181 137.541 843.499C122.167 822.847 122.998 795.131 124.909 769.95C129.563 709.615 130.103 648.865 133.095 588.405C135.63 536.838 138.746 485.354 142.445 433.87C143.068 425.268 143.94 416.708 145.145 408.273H145.187Z" fill="#973043"/>
<path d="M313.852 843.748C313.311 850.979 318.713 857.336 325.985 857.876C333.257 858.416 339.531 853.015 340.113 845.784C340.653 838.554 335.251 832.197 328.021 831.656C320.791 831.116 314.433 836.518 313.893 843.748H313.852Z" fill="#973043"/>
<path d="M66.484 969.319C65.4036 969.319 64.3232 969.236 63.2013 969.028C46.4554 965.912 47.328 953.031 49.0733 927.351C50.7769 902.253 54.4336 859.121 59.9601 799.202C75.4178 631.369 152.249 568.832 155.532 566.256C163.469 559.981 174.979 561.352 181.253 569.247C187.528 577.143 186.198 588.611 178.345 594.927C177.264 595.841 110.281 652.27 96.4436 802.567C86.2216 913.472 84.8088 940.814 84.6426 947.421C85.1412 950.122 85.0581 952.989 84.2686 955.815C82.0248 963.876 74.5452 969.361 66.4424 969.361L66.484 969.319Z" fill="#DE4A65"/>
<path d="M100.366 951.45C102.436 924.541 89.0158 901.566 70.3903 900.133C51.7649 898.7 34.9874 919.352 32.9169 946.26C30.8464 973.169 44.2669 996.144 62.8924 997.577C81.5179 999.011 98.2953 978.359 100.366 951.45Z" fill="#DE4A65"/>
<path d="M515.128 943.3C516.837 921.082 505.739 902.11 490.34 900.925C474.941 899.74 461.072 916.791 459.362 939.009C457.652 961.227 468.75 980.198 484.149 981.383C499.549 982.568 513.418 965.518 515.128 943.3Z" fill="#DE4A65"/>
<path d="M433.936 348.437C433.354 348.437 432.773 348.354 432.191 348.187L373.394 330.735C370.152 329.779 368.324 326.372 369.28 323.131C370.236 319.89 373.601 318.02 376.884 319.017L435.681 336.469C438.923 337.425 440.751 340.832 439.795 344.074C439.006 346.733 436.554 348.437 433.936 348.437Z" fill="#973043"/>
<path d="M706.282 426.969L595.47 544.478L600.79 549.495L711.602 431.986L706.282 426.969Z" fill="#D6EDFF"/>
<path d="M569.343 563.89L530.353 604.336L535.618 609.412L574.608 568.965L569.343 563.89Z" fill="#D6EDFF"/>
<path d="M826.568 -0.00146355L549.299 284.126L554.533 289.234L831.802 5.10627L826.568 -0.00146355Z" fill="#D6EDFF"/>
<path d="M523.147 303.682L484.186 344.098L489.451 349.174L528.412 308.757L523.147 303.682Z" fill="#D6EDFF"/>
<path d="M477.645 50.4333L374.731 160.025L380.063 165.032L482.977 55.4396L477.645 50.4333Z" fill="#D6EDFF"/>
<path d="M348.677 179.524L309.716 219.94L314.981 225.016L353.943 184.6L348.677 179.524Z" fill="#D6EDFF"/>
<path d="M864.693 521.665L581.903 811.147L587.135 816.257L869.924 526.776L864.693 521.665Z" fill="#D6EDFF"/>
<path d="M555.712 830.638L516.75 871.054L522.015 876.13L560.977 835.714L555.712 830.638Z" fill="#D6EDFF"/>
<path d="M716.42 869.687L534.82 1058.07L540.086 1063.14L721.685 874.762L716.42 869.687Z" fill="#D6EDFF"/>
<path d="M508.559 1077.53L469.598 1117.95L474.863 1123.02L513.824 1082.61L508.559 1077.53Z" fill="#D6EDFF"/>
<path d="M840.096 927.69L658.497 1116.07L663.762 1121.15L845.362 932.766L840.096 927.69Z" fill="#D6EDFF"/>
<path d="M632.308 1135.5L593.347 1175.92L598.612 1181L637.573 1140.58L632.308 1135.5Z" fill="#D6EDFF"/>
<path d="M378.264 623.899C376.877 606.676 361.488 593.831 343.946 595.275C326.404 596.684 313.288 611.814 314.674 629.072C315.138 634.766 317.138 639.997 320.196 644.355C321.793 646.608 316.1 657.047 318.212 658.793C319.948 660.241 329.414 653.098 331.413 654.169C336.62 656.892 342.66 658.24 348.992 657.696C366.533 656.287 379.649 641.157 378.264 623.899ZM337.646 640.934C330.464 639.925 329.159 634.936 328.98 632.496C328.879 631.54 328.978 630.875 329.026 630.56C329.18 629.438 330.199 628.671 331.32 628.824C332.371 628.974 333.073 629.885 333.065 630.907C333.062 630.977 333.058 631.083 333.052 631.223C333.047 631.329 333.041 631.47 333.037 631.575C333.034 631.645 333.029 631.751 333.026 631.821C333.019 631.997 333.011 632.173 333.004 632.349C333.023 632.738 333.109 633.199 333.266 633.664C333.264 633.699 333.296 633.771 333.33 633.808C333.837 635.169 335.045 636.594 337.736 637.131C341.795 637.831 343.186 636.621 343.433 634.94C343.516 632.969 343.612 631.528 339.209 628.981C334.013 625.977 330.709 624.11 331.365 619.415C332.022 614.72 336.659 613.4 340.654 613.957C341.67 614.106 342.507 614.317 343.269 614.631C344.798 615.154 346.417 616.033 347.519 617.49C347.822 617.82 348.084 618.289 348.342 618.864C348.339 618.934 348.372 618.971 348.405 619.043C348.469 619.186 348.532 619.365 348.561 619.507C348.56 619.542 348.592 619.614 348.626 619.651C348.904 620.579 349.035 621.642 348.885 622.693C348.877 622.869 348.864 623.186 348.744 623.533C348.744 623.533 348.741 623.603 348.739 623.639C348.736 623.709 348.661 623.811 348.623 623.88C348.623 623.88 348.62 623.951 348.584 623.984C348.584 623.984 348.545 624.053 348.51 624.052C348.096 624.669 347.341 625.025 346.57 624.921C345.869 624.821 345.324 624.375 345.032 623.799C345.033 623.764 345.001 623.692 344.967 623.655C344.936 623.548 344.906 623.441 344.875 623.334C344.875 623.334 344.875 623.334 344.876 623.299C344.879 623.229 344.881 623.194 344.884 623.123C344.827 622.804 344.842 622.452 344.889 622.172C344.892 622.101 344.893 622.066 344.896 621.996C344.901 621.89 344.904 621.82 344.908 621.714C344.929 621.222 344.841 620.795 344.68 620.436C344.68 620.436 344.683 620.366 344.649 620.329C344.652 620.259 344.584 620.22 344.551 620.149C343.737 618.563 341.702 617.526 340.124 617.318C338.022 617.018 335.59 617.867 335.288 620.004C334.986 622.141 336.859 623.701 340.139 625.319C346.515 628.726 347.621 630.922 347.902 633.437C348.208 636.199 346.197 642.106 337.752 640.938L337.646 640.934ZM367.588 620.487L351.964 641.574C351.329 642.428 350.122 642.624 349.233 641.987C348.378 641.352 348.183 640.145 348.819 639.256L364.443 618.169C365.078 617.315 366.285 617.119 367.174 617.756C368.029 618.391 368.224 619.598 367.588 620.487Z" fill="#10CBB4"/>
<path d="M383.784 725.959C383.14 724.522 382.16 723.529 376.897 722.954C371.635 722.379 352.435 722.167 347.363 722.094C342.29 722.02 310.001 722.137 304.628 722.509C302.153 722.686 297.78 722.748 292.902 723.071C292.902 723.071 292.902 723.071 292.904 723.036C292.904 723.036 311.946 679.431 312.455 678.219C312.965 677.007 314.594 673.48 313.215 672.752C311.834 672.06 309.653 671.968 307.428 672.896C305.204 673.824 303.551 675.411 302.701 677.172C301.851 678.934 299.146 684.565 297.993 686.842C296.839 689.119 292.888 696.707 290.444 699.493C287.741 702.587 284.552 704.637 282.655 702.83C281.164 701.428 282.514 697.819 283.307 695.738C284.1 693.657 286.184 689.374 287.153 687.3C288.122 685.227 289.504 682.536 289.985 680.336C290.465 678.136 288.974 675.887 287.377 675.326C285.779 674.765 284.11 674.237 283.249 675.434C282.387 676.631 282.586 678.613 282.086 680.425C281.664 682.064 280.615 683.535 279.849 684.983C278.969 686.637 278.088 688.292 277.276 689.985C276.044 692.47 274.913 695.031 273.957 697.634C273.005 700.167 272.079 702.877 271.965 705.586C271.876 707.697 272.38 709.938 273.796 711.478C274.975 712.762 276.669 713.538 278.427 713.648C281.378 713.878 284.371 712.278 286.664 710.542C287.72 709.741 289.428 708.544 290.044 707.301C287.421 712.653 284.729 717.967 282.211 723.359C282.096 723.566 281.98 723.808 281.797 723.976C281.577 724.178 281.293 724.237 281.008 724.295C280.794 724.357 280.58 724.418 280.367 724.445C278.875 724.734 277.414 725.095 276.093 725.498C272.772 726.52 269.933 727.81 267.662 729.018C264.495 730.576 261.49 732.458 258.718 734.667C255.177 737.549 252.105 741.014 249.788 744.97C247.66 748.616 245.713 753.01 246.201 757.295C246.696 761.44 249.615 764.911 253.731 765.931C256.591 766.651 259.677 766.182 262.403 765.064C265.129 763.945 267.567 762.145 269.764 760.194C276.314 754.479 281.027 747.206 284.947 739.512C285.983 737.511 286.984 735.509 287.951 733.471C296.776 732.328 317.788 731.348 323.224 731.154C328.694 730.998 355.016 731.158 361.324 731.178C367.632 731.198 380.841 732.214 382.626 730.844C384.411 729.474 384.399 727.253 383.755 725.816L383.784 725.959ZM276.101 736.988C275.642 737.85 275.149 738.675 274.656 739.5C273.595 741.252 272.465 742.967 271.302 744.645C268.9 748.103 266.256 751.446 263.073 754.201C261.5 755.58 256.833 759.26 255.05 756.4C253.633 754.084 256.619 748.466 262.125 743.27C268.992 736.758 277.102 734.986 277.102 734.986C276.853 735.046 276.219 736.711 276.068 736.951L276.101 736.988Z" fill="white"/>
<path d="M339.582 702.698C339.582 702.698 338.208 705.178 334.732 705.7C331.256 706.223 336.601 693.161 336.601 693.161C336.601 693.161 341.339 680.285 342.054 678.377C342.77 676.469 342.851 674.534 340.777 673.565C338.668 672.595 336.536 672.187 335.607 674.157L334.676 676.162C334.676 676.162 332.777 672.734 327.911 672.775C323.045 672.816 316.313 678.664 311.415 688.643C306.518 698.622 306.882 705.017 307.122 707.671C307.363 710.324 308.268 713.922 313.036 715.357C317.805 716.757 321.918 713.688 324.43 709.283C324.43 709.283 323.982 713.212 327.158 714.791C330.334 716.37 335.452 713.696 337.341 712.366C339.23 711.036 339.616 702.734 339.616 702.734L339.582 702.698ZM332.038 684.369C331.035 687.252 329.004 691.959 326.538 696.93C323.917 702.248 321.234 706.505 318.491 705.543C315.398 704.496 315.675 699.608 316.247 696.919C316.819 694.229 318.042 691.144 319.82 688.258C323.188 682.796 326.594 681.425 329.05 680.859C331.009 680.378 333.118 681.348 332.038 684.369Z" fill="white"/>
<path d="M369.984 676.35C368.221 673.032 363.682 672.841 361.068 673.823C358.453 674.805 355.351 678.163 354.743 679.195L355.654 675.991C355.654 675.991 356.473 674.968 353.804 673.904C351.135 672.839 349.741 672.463 348.803 674.644C347.865 676.825 329.805 730.552 329.805 730.552C329.805 730.552 328.65 733.71 329.102 735.527C329.552 737.378 331.857 738.709 334.568 736.286C337.278 733.863 339.756 722.76 341.322 717.398C342.888 712.036 343.365 710.752 343.365 710.752C343.365 710.752 344.919 714.025 349.442 715.415C354.697 717.011 359.072 713.566 362.713 708.292C366.433 702.845 369.487 694.797 370.499 690.011C371.47 685.4 371.749 679.631 369.984 676.35ZM362.676 689.152C361.932 692.575 360.633 695.798 359.057 698.903C357.712 701.525 356.256 704.283 353.923 706.123C351.881 707.729 347.939 708.443 346.216 705.833C346.216 705.833 347.955 700.549 350.151 695.284C352.23 690.297 354.768 684.448 358.663 682.356C363.495 679.776 363.336 686.043 362.641 689.151L362.676 689.152Z" fill="white"/>
<path d="M394.226 702.433C393.087 701.856 391.567 703.625 390.725 704.365C389.845 705.173 388.763 705.762 387.748 706.424C385.503 707.845 380.538 710.243 378.26 707.433C377.324 706.23 377.498 703.77 377.951 702.239C378.324 700.915 379.545 698.711 379.615 698.714C381.824 698.984 384.246 698.381 385.531 698.012C389.346 696.975 392.846 695.044 395.51 692.055C399.173 687.945 403.734 680.101 398.682 675.376C397.936 674.675 397.006 674.178 396.032 673.855C392.589 672.758 389.517 672.91 386.475 674.825C382.382 677.437 380.912 678.855 377.06 684.12C372.685 690.068 369.648 697.694 369.056 705.035C368.91 706.826 368.903 708.659 369.288 710.402C369.671 712.181 370.445 713.87 371.732 715.123C373.727 717.11 376.728 717.836 379.49 717.53C382.96 717.148 387.056 715.312 388.248 714.622C389.405 713.931 394.629 710.415 395.456 709.182C396.284 707.948 395.712 705.633 395.712 705.633C395.5 704.813 395.159 702.86 394.227 702.398L394.226 702.433ZM388.926 681.872C389.582 681.371 390.342 680.91 391.157 680.804C392.36 680.678 393.247 681.385 393.304 682.551C393.367 684.386 392.156 686.344 390.907 687.56C389.729 688.744 388.281 689.634 386.808 690.312C386.124 690.636 385.41 690.852 384.696 691.069C382.666 691.582 382.148 691.314 382.07 691.487C382.759 689.366 385.759 684.276 388.893 681.836L388.926 681.872Z" fill="white"/>
<path d="M287.066 461.899C285.613 470.793 289.726 478.964 296.355 480.16C302.973 481.352 309.601 475.024 311.069 466C312.545 456.991 308.303 448.793 301.674 447.719C295.03 446.653 288.531 453.008 287.078 461.903L287.066 461.899Z" fill="#DE4A65"/>
<path d="M409.43 480.516C407.814 489.785 411.418 498.16 417.551 499.234C423.681 500.32 430.041 493.606 431.673 484.21C433.312 474.829 429.577 466.426 423.432 465.467C417.276 464.504 411.046 471.246 409.419 480.512L409.43 480.516Z" fill="#DE4A65"/>
<path fill-rule="evenodd" clip-rule="evenodd" d="M329.417 507.297C330.167 508.782 331.969 509.353 333.44 508.574C350.711 499.422 363.529 501.437 371.974 505.429C376.262 507.456 379.514 510.039 381.694 512.108C382.781 513.141 383.596 514.039 384.134 514.667C384.403 514.981 384.605 515.229 384.743 515.402C384.759 515.422 384.776 515.443 384.794 515.465C384.842 515.525 384.893 515.589 384.93 515.634L384.932 515.636C384.952 515.66 385.012 515.734 385.082 515.81L385.084 515.812C385.105 515.835 385.233 515.977 385.414 516.122C385.414 516.123 385.416 516.124 385.417 516.125C385.46 516.16 385.843 516.481 386.422 516.653C386.832 516.744 387.942 516.696 388.597 516.457C389.268 515.998 390.064 514.855 390.23 514.294C390.423 513.302 390.119 512.334 389.494 511.653C389.489 511.646 389.484 511.64 389.478 511.633C389.457 511.606 389.43 511.573 389.395 511.529C389.235 511.33 388.991 511.029 388.667 510.651C388.021 509.897 387.067 508.846 385.806 507.65C383.291 505.262 379.534 502.273 374.551 499.918C364.453 495.145 349.678 493.153 330.722 503.197C329.251 503.977 328.667 505.812 329.417 507.297Z" fill="#DE4A65"/>
</g>
<defs>
<clipPath id="clip0_11135_14879">
<rect width="869.925" height="1300" fill="white"/>
</clipPath>
</defs>
</svg>
