<svg width="1097" height="1300" viewBox="0 0 1097 1300" fill="none" xmlns="http://www.w3.org/2000/svg">
<g clip-path="url(#clip0_11025_915)">
<path d="M112.567 365.934C134.166 365.934 151.676 381.594 151.676 400.923C151.676 404.276 151.14 407.513 150.152 410.582C148.712 415.049 149.721 419.979 153.032 423.321C242.834 514.205 382.739 550.046 384.252 550.508L374.498 590.185C367.814 588.157 217.766 541.795 122.331 439.938C119.819 437.258 116.298 435.912 112.63 435.912H112.567C90.9675 435.912 73.457 420.241 73.457 400.923C73.457 381.605 90.9675 365.934 112.567 365.934Z" fill="#DE4A65"/>
<path opacity="0.2" d="M201.654 1180.66L507.446 1275.5C552.589 1289.5 599.35 1297.81 646.584 1299.52C707.093 1301.69 835.699 1297.86 808.057 1260.33C776.998 1218.18 291.34 1157.55 291.34 1157.55L201.644 1180.65L201.654 1180.66Z" fill="#452A58"/>
<path d="M646.889 1231.63C641.161 1231.24 635.696 1228.25 632.343 1223.04C623.787 1209.74 618.059 1180.62 608.694 1130.32C604.07 1105.47 599.287 1079.77 593.917 1057.25C573.453 971.39 548.658 901.138 548.417 900.444C544.927 890.606 550.088 879.802 559.915 876.312C569.711 872.812 580.547 877.962 584.047 887.811C585.077 890.743 609.724 960.564 630.693 1048.48C636.274 1071.92 641.151 1098.09 645.859 1123.4C651.461 1153.49 659.145 1194.71 664.137 1202.59C669.718 1211.39 667.154 1223.08 658.377 1228.69C654.814 1230.96 650.799 1231.9 646.889 1231.63Z" fill="#DE4A65"/>
<path d="M610.806 1141.63C610.806 1141.63 614.369 1193.57 621.916 1237.3C627.707 1270.82 647.078 1277.56 677.128 1278.16C708.07 1278.77 708.176 1263.53 688.227 1230.17C678.61 1214.1 659.554 1198.07 647.814 1170.31C638.743 1148.85 619.099 1114 610.796 1141.63H610.806Z" fill="#DE4A65"/>
<path d="M265.19 1142.44L299.349 1117.94C260.05 1063.1 230.736 1001.7 236.622 986.536C245.157 964.537 364.114 912.762 435.649 892.593L387.616 867.525C385.955 867.998 346.457 879.181 304.047 896.387C221.56 929.863 203.693 955.183 197.439 971.327C179.529 1017.48 244.768 1113.95 265.2 1142.43L265.19 1142.44Z" fill="#DE4A65"/>
<path d="M351.113 922.254C363.41 903.545 347.539 880.233 347.529 880.212C370.179 872.465 386.544 867.82 387.605 867.525L435.638 892.593C410.949 899.561 380.605 910.282 351.113 922.254Z" fill="#973043"/>
<path d="M584.046 887.811C580.546 877.962 569.72 872.812 559.914 876.312C550.076 879.802 544.926 890.606 548.415 900.444C548.541 900.812 555.342 920.109 564.696 950.537V950.558L609.765 969.298C596.07 921.896 584.75 889.787 584.056 887.821L584.046 887.811Z" fill="#973043"/>
<path d="M638.564 827.365C639.037 830.55 641.086 833.23 644.019 834.565C657.745 840.766 698.169 857.677 718.643 851.371C743.532 843.709 784.807 788.424 811.062 788.35C837.306 788.266 875.081 811.484 883.427 744.574C891.761 677.664 904.878 677.738 955.539 676.939C999.252 676.245 1046 671.967 1093.81 622.705C1100.43 615.894 1093.92 604.648 1084.68 606.886C1051.56 614.937 996.278 618.858 935.716 583.206C838.421 525.924 776.22 448.851 679.544 464.574C589.69 479.184 632.131 784.398 638.564 827.375V827.365Z" fill="#F4C12A"/>
<path d="M615.609 853.452C623.387 794.604 637.356 590.774 650.641 479.047C663.926 367.331 695.226 283.258 643.231 284.782H643.22C578.192 286.832 429.395 290.205 389.539 295.723C389.539 295.723 361.172 299.476 357.062 331.964C354.865 349.39 334.864 459.288 324.984 567.977C316.46 661.825 317.805 755.274 316.87 781.781C314.82 838.979 315.619 882.04 373.458 886.003C416.982 888.988 507.53 903.314 566.778 905.269C564.15 905.185 561.47 905.079 558.737 904.943C573.725 904.869 609.492 899.751 615.63 853.441L615.609 853.452Z" fill="#DE4A65"/>
<path d="M600.642 791.598C607.253 741.799 616.45 600.717 624.196 505.839C632.247 407.303 660.552 344.398 617.722 341.465C562.237 337.661 435.922 342.327 401.847 346.983C401.847 346.983 377.599 350.136 374.11 377.621C372.113 393.387 356.358 479.689 347.56 577.226C342.337 635.086 338.973 694.88 335.957 752.835C334.254 785.554 332.719 816.939 375.108 819.84C412.326 822.394 508.255 833.724 558.916 835.416C556.677 835.332 554.375 835.248 552.042 835.132C564.854 835.08 595.429 830.771 600.653 791.598H600.642Z" fill="#742384"/>
<path d="M513.665 590.431C509.439 571.468 490.345 559.576 471.029 563.883C451.713 568.19 439.478 587.062 443.714 606.025C445.106 612.288 448.132 617.786 452.248 622.173C454.366 624.433 449.645 636.91 452.268 638.544C454.426 639.885 463.847 630.485 466.258 631.342C472.471 633.561 479.391 634.116 486.351 632.563C505.667 628.256 517.902 609.383 513.665 590.421V590.431ZM471.09 615.698C462.939 615.698 460.7 610.342 460.125 607.669C459.883 606.61 459.873 605.873 459.873 605.51C459.873 604.249 460.892 603.221 462.163 603.221C463.333 603.221 464.291 604.108 464.422 605.248L464.432 605.268C464.442 605.339 464.452 605.46 464.463 605.621C464.483 605.752 464.503 605.873 464.503 606.014C464.503 606.105 464.503 606.196 464.513 606.287C464.533 606.478 464.553 606.68 464.594 606.882C464.674 607.326 464.826 607.82 465.078 608.314C465.108 608.365 465.128 608.415 465.159 608.466C465.935 609.898 467.519 611.31 470.585 611.471C475.205 611.603 476.567 610.059 476.577 608.143C476.395 605.924 476.264 604.32 470.938 602.151C464.705 599.61 460.731 598.066 460.731 592.74C460.731 587.415 465.683 585.216 470.212 585.216C471.352 585.216 472.34 585.347 473.228 585.559C474.993 585.912 476.95 586.638 478.423 588.07C478.796 588.393 479.189 588.877 479.532 589.462C479.562 589.523 479.603 589.573 479.633 589.634C479.724 589.795 479.814 589.967 479.895 590.138C479.925 590.199 479.946 590.249 479.976 590.31C480.43 591.298 480.742 592.468 480.742 593.668C480.742 593.88 480.773 594.233 480.702 594.637C480.702 594.677 480.682 594.707 480.682 594.748C480.662 594.838 480.631 594.929 480.591 595.03C480.581 595.071 480.561 595.111 480.551 595.151C480.541 595.181 480.521 595.212 480.5 595.242C480.127 595.988 479.361 596.513 478.463 596.513C477.676 596.513 477 596.109 476.587 595.504C476.556 595.454 476.516 595.403 476.486 595.343C476.425 595.232 476.375 595.121 476.335 595C476.335 594.98 476.324 594.97 476.314 594.949C476.294 594.889 476.274 594.828 476.264 594.768C476.163 594.405 476.113 594.021 476.113 593.699C476.113 593.628 476.113 593.558 476.113 593.497C476.113 593.396 476.103 593.295 476.092 593.194C476.032 592.63 475.861 592.186 475.659 591.823C475.639 591.782 475.618 591.752 475.598 591.712C475.558 591.651 475.518 591.58 475.477 591.52C474.337 589.876 471.907 589.049 470.131 589.049C467.731 589.049 465.159 590.36 465.159 592.781C465.159 595.202 467.468 596.644 471.372 597.935C479.008 600.729 480.581 602.989 481.277 605.752C482.034 608.768 480.722 615.678 471.13 615.678L471.09 615.698ZM501.249 588.282L487.137 614.154C486.562 615.214 485.231 615.597 484.182 615.022C483.123 614.447 482.74 613.115 483.315 612.066L497.426 586.194C498.001 585.135 499.322 584.752 500.381 585.327C501.44 585.902 501.824 587.223 501.249 588.282Z" fill="#10CBB4"/>
<path d="M535.634 703.149C534.686 701.636 533.455 700.687 527.494 700.879C521.532 701.071 500.149 703.814 494.5 704.5C488.852 705.186 452.923 710.34 447.012 711.601C444.289 712.176 439.427 712.943 434.071 714.042C434.071 714.022 434.081 714.012 434.091 713.992C434.091 713.992 448.515 662.53 448.899 661.087C449.282 659.635 450.543 655.469 448.899 654.904C447.254 654.339 444.793 654.591 442.463 655.973C440.133 657.365 438.55 659.383 437.874 661.471C437.198 663.559 435.08 670.236 434.132 672.949C433.183 675.663 429.996 684.7 427.696 688.22C425.175 692.073 421.957 694.847 419.556 693.143C417.68 691.811 418.608 687.595 419.173 685.134C419.738 682.673 421.382 677.629 422.139 675.168C422.895 672.707 424.035 669.489 424.216 666.968C424.408 664.446 422.391 662.177 420.535 661.803C418.679 661.43 416.712 661.097 415.955 662.55C415.199 664.002 415.703 666.211 415.451 668.289C415.219 670.165 414.311 671.961 413.656 673.726C412.929 675.703 412.213 677.68 411.558 679.677C410.579 682.642 409.702 685.638 409.036 688.684C408.38 691.65 407.755 694.797 408.037 697.843C408.259 700.203 409.167 702.604 410.983 704.137C412.486 705.398 414.503 705.973 416.46 705.842C419.799 705.62 422.865 703.401 425.165 701.111C426.224 700.062 427.949 698.478 428.433 696.996C426.345 703.36 424.186 709.695 422.199 716.09C422.118 716.352 422.028 716.634 421.846 716.836C421.634 717.088 421.311 717.209 421.009 717.33C420.777 717.421 420.545 717.522 420.323 717.613C418.689 718.178 417.146 718.783 415.744 719.439C412.213 721.093 409.248 722.969 406.918 724.674C403.63 726.903 400.563 729.445 397.85 732.349C394.35 736.092 391.465 740.449 389.518 745.19C387.713 749.588 386.22 754.772 387.451 759.472C388.651 764.011 392.443 767.421 397.154 767.935C400.452 768.288 403.811 767.31 406.666 765.625C409.53 763.941 411.941 761.591 414.12 759.079C420.515 751.686 424.63 742.87 427.817 733.721C428.644 731.341 429.441 728.94 430.228 726.54C439.861 723.887 463.111 719.529 469.112 718.5C475.164 717.462 504.506 713.578 511.506 712.63C518.506 711.682 533.364 710.734 535.16 708.938C536.955 707.143 536.582 704.682 535.634 703.169V703.149ZM417.509 732.117C417.126 733.136 416.722 734.135 416.308 735.133C415.411 737.252 414.422 739.329 413.383 741.387C411.245 745.613 408.834 749.739 405.707 753.31C404.164 755.075 399.555 759.916 397.134 756.981C395.207 754.641 397.658 747.893 402.954 741.276C409.601 732.965 418.336 729.747 418.336 729.747C418.074 729.848 417.62 731.805 417.499 732.107L417.509 732.117Z" fill="white"/>
<path d="M482.841 684.126C482.841 684.126 481.681 687.101 477.898 688.241C474.116 689.381 478.019 673.979 478.019 673.979C478.019 673.979 481.287 658.919 481.792 656.67C482.306 654.421 482.094 652.252 479.613 651.505C477.132 650.759 474.681 650.628 473.944 652.978L473.208 655.338C473.208 655.338 470.555 651.818 465.139 652.615C459.722 653.412 453.166 660.977 449.252 672.839C445.339 684.701 446.761 691.761 447.437 694.666C448.112 697.571 449.686 701.465 455.213 702.292C460.731 703.119 464.816 699.054 466.944 693.769C466.944 693.769 467.045 698.197 470.828 699.457C474.61 700.718 479.895 696.966 481.792 695.181C483.688 693.395 482.831 684.116 482.831 684.116L482.841 684.126ZM471.584 664.901C470.928 668.259 469.375 673.807 467.418 679.728C465.33 686.052 463 691.196 459.783 690.581C456.182 689.885 455.718 684.398 455.94 681.332C456.162 678.255 457.039 674.624 458.572 671.124C461.467 664.517 465.048 662.48 467.681 661.451C469.809 660.624 472.26 661.38 471.574 664.911L471.584 664.901Z" fill="white"/>
<path d="M512.576 650.083C510.115 646.674 505.001 647.148 502.257 648.661C499.513 650.174 496.558 654.38 496.054 655.641L496.578 651.919C496.578 651.919 497.335 650.658 494.218 649.902C491.091 649.145 489.467 648.933 488.771 651.495C488.065 654.057 476.284 716.635 476.284 716.635C476.284 716.635 475.477 720.327 476.284 722.304C477.091 724.281 479.824 725.441 482.477 722.304C485.13 719.167 486.128 706.437 487.046 700.224C487.964 694.001 488.277 692.528 488.277 692.528C488.277 692.528 490.526 695.927 495.761 696.764C501.854 697.743 506.201 693.214 509.419 686.778C512.727 680.152 514.875 670.721 515.239 665.233C515.592 659.938 515.027 653.503 512.566 650.093L512.576 650.083ZM506.433 665.455C506.15 669.379 505.202 673.172 503.921 676.863C502.832 680 501.652 683.278 499.342 685.669C497.325 687.767 493.058 689.159 490.728 686.546C490.728 686.546 491.838 680.404 493.482 674.2C495.035 668.34 496.931 661.421 500.936 658.495C505.898 654.864 506.695 661.864 506.433 665.445V665.455Z" fill="white"/>
<path d="M543.613 675.329C542.252 674.875 540.839 677.054 540.043 678.033C539.185 679.082 538.086 679.909 537.047 680.786C534.757 682.723 529.603 686.152 526.648 683.368C525.407 682.198 525.245 679.414 525.498 677.629C525.72 676.076 526.718 673.443 526.819 673.443C529.331 673.393 531.923 672.354 533.305 671.759C537.4 670.004 540.991 667.3 543.472 663.578C546.902 658.434 550.755 649.023 544.43 644.545C543.492 643.879 542.383 643.456 541.253 643.264C537.269 642.588 533.859 643.213 530.763 645.836C526.607 649.356 525.215 651.202 521.745 657.637C517.812 664.94 515.603 673.877 516.077 682.168C516.198 684.185 516.46 686.223 517.156 688.119C517.852 690.026 518.992 691.801 520.616 693.011C523.158 694.908 526.607 695.24 529.623 694.484C533.406 693.536 537.702 690.822 538.893 689.874C540.093 688.926 545.328 684.196 546.054 682.693C546.78 681.19 545.772 678.708 545.772 678.708C545.419 677.821 544.723 675.713 543.603 675.339L543.613 675.329ZM534.535 653.27C535.191 652.594 535.947 651.969 536.855 651.737C538.166 651.404 539.286 652.049 539.528 653.361C539.901 655.388 538.832 657.748 537.662 659.322C536.543 660.825 535.07 662.025 533.506 663.034C532.79 663.498 532.054 663.871 531.257 664.194C529.088 665.091 528.453 664.87 528.423 665.071C528.877 662.61 531.398 656.477 534.525 653.27H534.535Z" fill="white"/>
<path d="M708.48 375.845C711.16 355.633 717.372 334.392 709.605 314.632C700.114 290.458 664.63 284.11 643.22 284.793C695.226 283.269 663.916 367.342 650.63 479.058C637.345 590.785 623.377 794.604 615.599 853.463C611.237 886.434 588.366 903.545 559.441 904.975C586.853 903.619 618.878 909.494 641.297 887.044C660.079 868.24 663.39 839.862 665.166 813.849C668.519 764.933 682.792 569.238 708.47 375.845H708.48Z" fill="#973043"/>
<path d="M683.98 590.658C686.639 563.604 689.561 535.216 692.767 506.06L665.408 518.199C665.408 518.199 664.861 584.993 683.969 590.658H683.98Z" fill="#6B222F"/>
<path d="M461.01 855.323C460.495 862.806 454.01 868.451 446.527 867.935C439.054 867.42 433.399 860.946 433.914 853.463C434.429 845.99 440.904 840.335 448.377 840.85C455.86 841.365 461.515 847.85 461 855.323H461.01Z" fill="#973043"/>
<path d="M475.042 327.749C471.889 327.528 469.324 324.985 469.167 321.747C468.998 318.268 471.689 315.304 475.168 315.136L545.925 311.72C549.425 311.531 552.368 314.243 552.546 317.732C552.715 321.211 550.024 324.175 546.545 324.343L475.788 327.759C475.536 327.77 475.284 327.759 475.042 327.759V327.749Z" fill="#973043"/>
<path d="M883.627 565.255C859.821 512.671 790.157 488.055 687.659 495.917C686.398 496.011 685.452 496.096 684.842 496.127C674.805 496.169 666.48 504.115 666.06 514.247C665.629 524.674 673.732 533.481 684.159 533.912C684.884 533.944 687.091 533.87 690.528 533.608C774.833 527.154 832.651 544.37 849.184 580.852C878.077 644.661 753.791 705.969 706.998 729.05C706.998 729.05 655.013 741.389 646.016 765.921C637.019 790.452 633.719 818.379 649.968 830.403C671.273 846.158 718.928 786.689 714.156 767.697C716.983 766.278 720.22 764.67 723.72 762.946C784.723 732.855 927.582 662.371 883.606 565.255H883.627Z" fill="#DE4A65"/>
<path d="M683.297 533.817C684.022 533.849 686.229 533.775 689.666 533.502C758.983 528.016 810.369 538.61 835.71 562.795C835.457 560.609 834.89 558.433 833.565 556.289C818.672 532.251 761.663 524.526 721.303 524.694C680.943 524.862 698.338 494.876 698.338 494.876C694.438 495.118 684.474 495.99 683.875 496.022C673.838 496.095 665.534 504.052 665.145 514.194C664.746 524.621 672.871 533.407 683.297 533.807V533.817Z" fill="#973043"/>
<path d="M236.612 986.536C230.726 1001.7 260.039 1063.1 299.338 1117.94L265.179 1142.44C244.757 1113.97 179.508 1017.48 197.418 971.338C197.67 970.676 197.965 969.993 198.259 969.299H255.184C245.104 975.983 238.398 981.922 236.601 986.547L236.612 986.536Z" fill="#DE4A65"/>
<path d="M299.338 1117.94C299.338 1117.94 323.113 1146.74 294.178 1161.66C283.1 1167.37 218.513 1179.78 206.005 1179.32C189.703 1178.71 203.588 1143.66 232.386 1128.07C261.196 1112.49 274.155 1111.88 299.338 1117.95V1117.94Z" fill="#DE4A65"/>
<path fill-rule="evenodd" clip-rule="evenodd" d="M468.031 471.227C464.689 469.283 453.086 465.268 456.155 480.613C459.234 495.969 475.483 501.372 489.599 501.855C503.725 502.328 520.542 484.597 520.363 475.999C520.195 467.402 510.956 468.2 504.965 470.839C499.363 473.319 473.35 474.349 468.031 471.227Z" fill="#3F0D4A"/>
<path fill-rule="evenodd" clip-rule="evenodd" d="M468.032 471.227C467.191 470.744 465.814 470.113 464.279 469.714C464.553 471.879 465.824 475.473 470.995 477.102C478.668 479.509 493.498 479.163 500.835 477.124C506.374 475.568 508.549 472.551 508.917 469.524C507.53 469.85 506.185 470.323 504.965 470.849C499.363 473.329 473.35 474.359 468.032 471.238V471.227Z" fill="white"/>
<path fill-rule="evenodd" clip-rule="evenodd" d="M463.449 493.184C470.228 499.112 480.371 501.529 489.599 501.855C496.305 502.076 503.61 498.208 509.411 493.152C503.525 486.899 496.557 482.106 487.276 481.748C478.069 481.391 469.167 485.648 463.438 493.194L463.449 493.184Z" fill="#DE4A65"/>
<path fill-rule="evenodd" clip-rule="evenodd" d="M463.449 493.184C465.152 494.666 467.054 495.938 469.114 497.01C468.41 495.959 467.527 494.245 467.927 492.679C468.557 490.157 474.58 484.155 483.335 484.313C492.09 484.502 502.506 489.022 502.37 492.501C502.275 494.823 500.698 497.798 498.491 500.079C502.359 498.502 506.132 496.022 509.422 493.152C503.536 486.899 496.568 482.106 487.287 481.748C478.08 481.391 469.177 485.648 463.449 493.194V493.184Z" fill="#DE4A65"/>
<path d="M566.893 420.136C566.893 427.241 562.258 433.001 556.551 433.001C550.844 433.001 546.219 427.241 546.219 420.136C546.219 413.031 550.844 407.271 556.551 407.271C562.258 407.271 566.893 413.042 566.893 420.136Z" fill="#DE4A65"/>
<path d="M444.971 425.055C444.971 432.16 440.336 437.92 434.629 437.92C428.922 437.92 424.297 432.16 424.297 425.055C424.297 417.95 428.922 412.19 434.629 412.19C440.336 412.19 444.971 417.961 444.971 425.055Z" fill="#DE4A65"/>
<path opacity="0.23" d="M117.696 434.094C117.696 434.094 94.2466 445.403 82.2646 436.406L84.3773 424.876L117.696 434.094Z" fill="#0C050E"/>
<path d="M225.593 343.153L212.975 323.551L193.373 336.169L205.991 355.771L225.593 343.153Z" fill="#00AD9D"/>
<path d="M141.545 341.824L128.927 322.222L109.325 334.84L121.943 354.442L141.545 341.824Z" fill="#00AD9D"/>
<path d="M64.4653 308.24L51.8472 288.638L32.2451 301.256L44.8632 320.858L64.4653 308.24Z" fill="#00AD9D"/>
<path d="M212.971 323.547L200.353 303.945L180.751 316.563L193.369 336.166L212.971 323.547Z" fill="#38676B"/>
<path d="M148.537 309.571L135.918 289.969L116.316 302.587L128.935 322.189L148.537 309.571Z" fill="#52C3C5"/>
<path d="M155.586 277.381L142.968 257.779L123.366 270.397L135.984 290L155.586 277.381Z" fill="#52C3C5"/>
<path d="M162.57 245.154L149.952 225.552L130.35 238.17L142.968 257.772L162.57 245.154Z" fill="#52C3C5"/>
<path d="M169.566 212.939L156.948 193.337L137.346 205.955L149.964 225.557L169.566 212.939Z" fill="#52C3C5"/>
<path d="M176.565 180.73L163.947 161.128L144.345 173.746L156.963 193.348L176.565 180.73Z" fill="#52C3C5"/>
<path d="M183.568 148.504L170.95 128.902L151.348 141.521L163.966 161.123L183.568 148.504Z" fill="#52C3C5"/>
<path d="M190.549 116.282L177.931 96.6797L158.329 109.298L170.947 128.9L190.549 116.282Z" fill="#52C3C5"/>
<path d="M197.555 84.0611L184.937 64.459L165.335 77.0772L177.953 96.6793L197.555 84.0611Z" fill="#52C3C5"/>
<path d="M204.544 51.8326L191.926 32.2305L172.324 44.8486L184.942 64.4508L204.544 51.8326Z" fill="#52C3C5"/>
<path d="M168.131 296.979L155.513 277.377L135.911 289.995L148.529 309.597L168.131 296.979Z" fill="#8FD2D0"/>
<path d="M175.11 264.76L162.492 245.158L142.89 257.776L155.508 277.379L175.11 264.76Z" fill="#8FD2D0"/>
<path d="M182.111 232.537L169.493 212.935L149.891 225.553L162.509 245.155L182.111 232.537Z" fill="#8FD2D0"/>
<path d="M189.11 200.329L176.492 180.727L156.89 193.345L169.508 212.947L189.11 200.329Z" fill="#8FD2D0"/>
<path d="M196.103 168.102L183.485 148.5L163.883 161.118L176.501 180.72L196.103 168.102Z" fill="#8FD2D0"/>
<path d="M203.103 135.874L190.485 116.271L170.883 128.89L183.501 148.492L203.103 135.874Z" fill="#8FD2D0"/>
<path d="M210.099 103.659L197.481 84.0566L177.879 96.6748L190.497 116.277L210.099 103.659Z" fill="#8FD2D0"/>
<path d="M217.089 71.4302L204.471 51.8281L184.869 64.4463L197.487 84.0484L217.089 71.4302Z" fill="#8FD2D0"/>
<path d="M135.951 289.992L123.333 270.39L103.731 283.008L116.349 302.61L135.951 289.992Z" fill="#8FD2D0"/>
<path d="M142.949 257.767L130.331 238.165L110.729 250.783L123.347 270.385L142.949 257.767Z" fill="#8FD2D0"/>
<path d="M120.592 438.463L107.974 418.861L88.3715 431.48L100.99 451.082L120.592 438.463Z" fill="#AA841B"/>
<path d="M127.636 406.264L115.018 386.662L95.4154 399.28L108.034 418.882L127.636 406.264Z" fill="#624029"/>
<path d="M120.566 438.477L107.943 418.875L127.545 406.252L132.527 423.91L120.566 438.477Z" fill="#61460C"/>
<path d="M127.544 406.252L114.921 386.639L134.534 374.026L140.22 383.843L127.544 406.252Z" fill="#61460C"/>
<path d="M108.007 418.883L95.3887 399.281L75.7865 411.899L88.4047 431.502L108.007 418.883Z" fill="#422B1C"/>
<path d="M114.988 386.64L102.37 367.038L82.768 379.656L95.3862 399.258L114.988 386.64Z" fill="#61460C"/>
<path d="M149.932 225.549L137.313 205.947L117.711 218.565L130.33 238.168L149.932 225.549Z" fill="#8FD2D0"/>
<path d="M156.93 193.341L144.312 173.739L124.709 186.357L137.328 205.96L156.93 193.341Z" fill="#8FD2D0"/>
<path d="M163.934 161.116L151.316 141.514L131.714 154.132L144.332 173.734L163.934 161.116Z" fill="#8FD2D0"/>
<path d="M170.923 128.886L158.305 109.284L138.703 121.902L151.321 141.504L170.923 128.886Z" fill="#8FD2D0"/>
<path d="M177.92 96.6714L165.302 77.0693L145.7 89.6875L158.318 109.29L177.92 96.6714Z" fill="#8FD2D0"/>
<path d="M187.716 284.366L175.098 264.764L155.496 277.382L168.114 296.984L187.716 284.366Z" fill="#00ABB6"/>
<path d="M194.695 252.148L182.077 232.546L162.475 245.164L175.093 264.766L194.695 252.148Z" fill="#00ABB6"/>
<path d="M201.688 219.93L189.069 200.328L169.467 212.946L182.085 232.548L201.688 219.93Z" fill="#00ABB6"/>
<path d="M208.695 187.715L196.077 168.113L176.475 180.731L189.093 200.334L208.695 187.715Z" fill="#00ABB6"/>
<path d="M215.69 155.496L203.072 135.894L183.47 148.512L196.088 168.114L215.69 155.496Z" fill="#00ABB6"/>
<path d="M222.679 123.266L210.061 103.664L190.458 116.282L203.077 135.884L222.679 123.266Z" fill="#00ABB6"/>
<path d="M229.676 91.0523L217.058 71.4502L197.456 84.0684L210.074 103.67L229.676 91.0523Z" fill="#00ABB6"/>
<path d="M123.34 270.368L110.722 250.766L91.1201 263.384L103.738 282.986L123.34 270.368Z" fill="#00ABB6"/>
<path d="M106.643 502.896L94.0244 483.294L74.4223 495.912L87.0405 515.514L106.643 502.896Z" fill="#38676B"/>
<path d="M113.692 470.706L101.074 451.104L81.4716 463.722L94.0898 483.324L113.692 470.706Z" fill="#00AD9D"/>
<path d="M126.226 490.303L113.607 470.701L94.0053 483.319L106.623 502.921L126.226 490.303Z" fill="#38676B"/>
<path d="M133.215 458.075L120.597 438.473L100.995 451.091L113.613 470.693L133.215 458.075Z" fill="#38676B"/>
<path d="M94.0567 483.317L81.4385 463.715L61.8364 476.333L74.4546 495.935L94.0567 483.317Z" fill="#38676B"/>
<path d="M101.044 451.082L88.4263 431.479L68.8241 444.098L81.4423 463.7L101.044 451.082Z" fill="#38676B"/>
<path d="M145.812 477.691L133.193 458.089L113.591 470.707L126.209 490.309L145.812 477.691Z" fill="#38676B"/>
<path d="M81.4463 463.682L68.8281 444.08L49.226 456.698L61.8442 476.3L81.4463 463.682Z" fill="#38676B"/>
<path d="M130.324 238.129L117.706 218.527L98.1039 231.146L110.722 250.748L130.324 238.129Z" fill="#00ABB6"/>
<path d="M137.312 205.931L124.694 186.329L105.092 198.947L117.71 218.549L137.312 205.931Z" fill="#00ABB6"/>
<path d="M144.319 173.717L131.701 154.115L112.099 166.733L124.717 186.336L144.319 173.717Z" fill="#00ABB6"/>
<path d="M151.309 141.477L138.691 121.875L119.089 134.493L131.707 154.095L151.309 141.477Z" fill="#00ABB6"/>
<path d="M158.304 109.257L145.686 89.6553L126.084 102.273L138.702 121.876L158.304 109.257Z" fill="#00ABB6"/>
<path d="M165.295 77.0338L152.677 57.4316L133.075 70.0498L145.693 89.6519L165.295 77.0338Z" fill="#00ABB6"/>
<path d="M172.293 44.8355L159.675 25.2334L140.073 37.8516L152.691 57.4537L172.293 44.8355Z" fill="#00ABB6"/>
<path d="M191.919 32.231L179.301 12.6289L159.699 25.2471L172.317 44.8492L191.919 32.231Z" fill="#00ABB6"/>
<path d="M211.518 19.605L198.899 0.00292969L179.297 12.6211L191.915 32.2232L211.518 19.605Z" fill="#00ABB6"/>
<path d="M224.119 39.2095L211.501 19.6074L191.899 32.2256L204.517 51.8277L224.119 39.2095Z" fill="#00ABB6"/>
<path d="M236.683 58.8375L224.065 39.2354L204.463 51.8535L217.081 71.4556L236.683 58.8375Z" fill="#00ABB6"/>
<path d="M184.91 64.4429L172.292 44.8408L152.689 57.459L165.308 77.0611L184.91 64.4429Z" fill="#8FD2D0"/>
<path d="M154.147 361.409L141.529 341.807L121.927 354.425L134.545 374.027L154.147 361.409Z" fill="#38676B"/>
<path d="M134.582 374.043L121.963 354.44L102.361 367.059L114.979 386.661L134.582 374.043Z" fill="#AA841B"/>
<path d="M121.929 354.446L109.311 334.844L89.7089 347.462L102.327 367.064L121.929 354.446Z" fill="#38676B"/>
<path d="M84.0762 295.627L71.458 276.024L51.8559 288.643L64.4741 308.245L84.0762 295.627Z" fill="#38676B"/>
<path d="M51.8384 288.643L39.2202 269.041L19.6181 281.659L32.2363 301.261L51.8384 288.643Z" fill="#38676B"/>
<path d="M32.2276 301.266L19.6094 281.664L0.00723953 294.282L12.6254 313.884L32.2276 301.266Z" fill="#38676B"/>
<path d="M44.8433 320.863L32.2251 301.261L12.623 313.879L25.2411 333.481L44.8433 320.863Z" fill="#38676B"/>
<path d="M205.927 355.756L218.545 375.358L238.147 362.74L225.529 343.138L205.927 355.756Z" fill="#38676B"/>
<path d="M225.552 343.134L238.17 362.736L257.772 350.118L245.154 330.516L225.552 343.134Z" fill="#38676B"/>
<path d="M212.932 323.527L225.55 343.129L245.152 330.511L232.534 310.909L212.932 323.527Z" fill="#38676B"/>
<path d="M193.374 336.164L180.755 316.562L141.533 341.809L154.152 361.411L193.374 336.164Z" fill="#00AD9D"/>
<path d="M205.981 355.766L193.363 336.164L154.141 361.412L166.759 381.014L205.981 355.766Z" fill="#38676B"/>
<path d="M180.767 316.587L168.149 296.985L128.927 322.233L141.545 341.835L180.767 316.587Z" fill="#38676B"/>
<path d="M84.066 295.608L64.4639 308.227L89.7116 347.448L109.314 334.83L84.066 295.608Z" fill="#00AD9D"/>
<path d="M103.669 282.981L84.0674 295.6L109.315 334.822L128.917 322.203L103.669 282.981Z" fill="#38676B"/>
<path d="M64.4903 308.206L44.8882 320.824L70.1359 360.046L89.738 347.428L64.4903 308.206Z" fill="#38676B"/>
<path d="M143.269 393.44C147.378 410.824 134.944 428.65 115.51 433.243C96.066 437.836 76.9789 427.462 72.8693 410.078C69.1381 394.291 83.6951 368.54 94.8362 370.18C98.3783 370.695 94.1846 375.604 109.393 384.622C122.216 392.231 134.398 381.363 137.603 381.847C141.86 382.477 142.239 389.099 143.269 393.45V393.44Z" fill="#DE4A65"/>
<path d="M73.0264 410.719C73.4258 410.94 109.372 430.836 132.379 414.303C155.513 397.675 137.351 430.836 132.379 433.19C122.657 437.783 104.81 435.986 104.789 435.986C88.7816 433.443 76.9468 426.022 73.0369 410.719H73.0264Z" fill="#973043"/>
</g>
<defs>
<clipPath id="clip0_11025_915">
<rect width="1096.51" height="1300" fill="white"/>
</clipPath>
</defs>
</svg>
