<svg width="667" height="1300" viewBox="0 0 667 1300" fill="none" xmlns="http://www.w3.org/2000/svg">
<g clip-path="url(#clip0_11025_892)">
<path d="M157.831 1251.58C164.07 1251.58 170.218 1248.75 174.237 1243.35C184.503 1229.56 192.872 1198.42 206.768 1144.56C213.628 1117.95 220.729 1090.44 228.22 1066.43C256.79 974.851 288.881 900.507 289.196 899.769C293.704 889.359 288.923 877.267 278.515 872.75C268.15 868.225 256.027 873.007 251.503 883.425C250.161 886.525 218.26 960.405 189.003 1054.19C181.206 1079.2 173.98 1107.21 166.987 1134.3C158.676 1166.51 147.291 1210.63 141.292 1218.81C134.597 1227.93 136.495 1240.81 145.593 1247.54C149.28 1250.26 153.572 1251.58 157.823 1251.58H157.831Z" fill="#DE4A65"/>
<path d="M234.79 923.747C239.057 913.221 251.055 908.14 261.529 912.4C272.044 916.652 277.305 928.471 273.055 938.988C272.897 939.378 252.97 992.72 252.97 992.72L203.03 1011C220.132 960.181 233.937 925.843 234.79 923.738V923.747Z" fill="#973043"/>
<path d="M203.635 1156.66C203.635 1156.66 195.912 1212.72 184.478 1259.56C175.711 1295.49 154.201 1301.36 121.579 1299.77C87.9883 1298.14 89.0074 1281.59 113.111 1246.91C124.728 1230.2 146.578 1214.24 161.377 1185C172.803 1162.4 196.691 1126.07 203.635 1156.65V1156.66Z" fill="#DE4A65"/>
<path d="M490.676 1223.55C491.769 1223.55 492.871 1223.46 493.982 1223.29C505.184 1221.47 512.782 1210.92 510.976 1199.72C510.33 1195.69 494.843 1100.5 481.569 1051.93C468.287 1003.33 434.025 916.577 432.575 912.906C428.399 902.363 416.467 897.2 405.927 901.361C395.379 905.538 390.209 917.473 394.393 928.023C394.741 928.902 429.269 1016.34 441.954 1062.76C454.657 1109.22 470.276 1205.33 470.433 1206.3C472.074 1216.38 480.782 1223.56 490.684 1223.56L490.676 1223.55Z" fill="#DE4A65"/>
<path d="M394.377 928.023C390.201 917.473 395.363 905.538 405.911 901.361C416.451 897.2 428.382 902.363 432.559 912.906C432.973 913.958 436.088 921.849 440.629 933.692L414.794 981.763C403.997 952.399 394.551 928.479 394.369 928.023H394.377Z" fill="#973043"/>
<path d="M496.824 303.6C499.169 303.103 501.638 303.004 504.149 303.385C538.519 308.54 671.425 361.923 666.876 455.993C663.056 535.086 530.888 557.605 515.816 559.917C504.605 561.633 494.131 553.933 492.408 542.719C490.693 531.497 498.316 521.096 509.601 519.297C546.813 513.595 624.113 490.016 625.844 454.004C628.661 395.805 530.954 348.936 498.051 344.005C486.831 342.322 479.109 331.863 480.783 320.649C482.092 311.938 488.687 305.333 496.816 303.6H496.824Z" fill="#DE4A65"/>
<path d="M459.546 291.475C459.546 291.475 469.539 269.918 493.502 281.703C518.252 293.878 520.605 315.784 517.945 332.136C515.186 349.135 459.546 291.475 459.546 291.475Z" fill="#DE4A65"/>
<path d="M184.237 882.306C180.177 817.908 180.177 595.846 174.079 473.713C167.98 351.58 140.289 258.09 196.55 263.61H196.567C266.914 270.672 427.968 285.391 470.773 294.326C470.773 294.326 501.249 300.509 503.287 336.04C504.381 355.102 517.895 475.76 520.53 594.354C522.8 696.753 514.39 797.983 513.445 826.801C511.415 888.978 507.347 935.615 444.357 935.615C396.945 935.615 297.721 944.417 233.348 942.138C236.207 942.246 239.115 942.32 242.09 942.386C225.849 941.193 187.452 932.98 184.237 882.315V882.306Z" fill="#DE4A65"/>
<path d="M205.06 816.35C201.597 761.864 202.111 608.187 200.76 504.727C199.36 397.28 173.342 326.964 219.992 326.964C280.421 326.964 417.022 341.41 453.613 348.986C453.613 348.986 479.672 354.207 481.412 384.268C482.407 401.516 493.071 496.265 495.366 602.692C496.725 665.822 495.929 730.916 494.894 793.98C494.314 829.586 493.634 863.733 447.473 863.733C406.938 863.733 302.088 868.896 247.053 866.965C249.489 867.048 251.983 867.114 254.527 867.172C240.64 866.161 207.811 859.216 205.069 816.35H205.06Z" fill="#742384"/>
<path d="M119.036 357.497C117.636 335.385 112.473 311.888 122.367 291.027C134.448 265.517 173.391 261.273 196.551 263.602C140.289 258.082 167.981 351.572 174.079 473.704C180.178 595.846 180.178 817.908 184.238 882.306C186.516 918.384 210.04 938.64 241.295 942.337C211.681 938.831 176.524 942.817 153.886 916.809C134.92 895.02 133.445 863.998 133.445 835.669C133.445 782.377 132.517 569.108 119.044 357.489L119.036 357.497Z" fill="#973043"/>
<path d="M129.824 601.308C128.954 571.769 127.885 540.772 126.576 508.912L157.582 524.469C157.582 524.469 150.953 596.592 129.815 601.308H129.824Z" fill="#6B222F"/>
<path d="M351.696 895.824C351.696 903.979 358.308 910.577 366.454 910.577C374.599 910.577 381.202 903.971 381.202 895.824C381.202 887.677 374.599 881.063 366.454 881.063C358.3 881.063 351.696 887.677 351.696 895.824Z" fill="#973043"/>
<path d="M464.477 1171.36C464.477 1171.36 469.208 1214.04 474.072 1219.64C483.31 1230.26 571.539 1246.53 585.658 1246C604.061 1245.32 588.384 1205.74 555.879 1188.14C523.356 1170.56 492.897 1164.52 464.477 1171.37V1171.36Z" fill="#DE4A65"/>
<path d="M375.675 322.696C379.114 322.696 382.08 320.127 382.486 316.629C382.926 312.866 380.233 309.452 376.471 309.012L300.025 300.045C296.247 299.572 292.849 302.299 292.402 306.07C291.963 309.833 294.656 313.248 298.417 313.687L374.863 322.655C375.137 322.688 375.402 322.704 375.675 322.704V322.696Z" fill="#973043"/>
<path d="M405.655 585.917C401.263 566.199 381.427 553.85 361.35 558.326C341.273 562.801 328.571 582.411 332.962 602.128C334.412 608.643 337.553 614.353 341.828 618.92C344.032 621.265 339.127 634.244 341.853 635.935C344.09 637.328 353.884 627.556 356.387 628.451C362.841 630.763 370.033 631.327 377.267 629.719C397.336 625.244 410.046 605.634 405.655 585.917ZM361.416 612.173C352.948 612.173 350.62 606.612 350.023 603.835C349.774 602.741 349.758 601.971 349.758 601.598C349.758 600.288 350.818 599.219 352.136 599.219C353.354 599.219 354.348 600.147 354.481 601.324C354.481 601.332 354.489 601.341 354.497 601.349C354.506 601.424 354.514 601.548 354.522 601.722C354.539 601.855 354.564 601.987 354.564 602.136C354.564 602.228 354.564 602.327 354.572 602.418C354.588 602.617 354.622 602.824 354.655 603.032C354.746 603.496 354.903 604.01 355.16 604.523C355.193 604.581 355.218 604.631 355.243 604.681C356.047 606.173 357.696 607.64 360.886 607.805C365.683 607.946 367.1 606.338 367.117 604.341C366.934 602.037 366.794 600.371 361.259 598.108C354.779 595.465 350.644 593.865 350.644 588.328C350.644 582.792 355.79 580.505 360.496 580.505C361.673 580.505 362.709 580.637 363.628 580.869C365.468 581.234 367.498 581.988 369.023 583.48C369.412 583.811 369.818 584.317 370.183 584.922C370.216 584.98 370.257 585.038 370.29 585.104C370.381 585.27 370.473 585.452 370.564 585.635C370.589 585.693 370.622 585.751 370.647 585.809C371.111 586.837 371.442 588.055 371.442 589.306C371.442 589.522 371.475 589.895 371.401 590.309C371.401 590.351 371.384 590.384 371.376 590.417C371.351 590.517 371.326 590.608 371.285 590.707C371.268 590.749 371.26 590.79 371.235 590.831C371.218 590.865 371.202 590.898 371.185 590.931C370.796 591.71 370 592.249 369.072 592.249C368.26 592.249 367.548 591.834 367.125 591.204C367.092 591.155 367.059 591.097 367.026 591.039C366.959 590.923 366.91 590.807 366.868 590.682C366.868 590.666 366.852 590.649 366.852 590.633C366.835 590.566 366.81 590.508 366.794 590.442C366.686 590.069 366.636 589.671 366.636 589.331C366.636 589.257 366.636 589.19 366.628 589.116C366.628 589.008 366.611 588.9 366.603 588.801C366.537 588.221 366.363 587.748 366.147 587.375C366.122 587.334 366.106 587.301 366.081 587.259C366.04 587.193 365.998 587.127 365.957 587.06C364.772 585.353 362.245 584.491 360.397 584.491C357.903 584.491 355.226 585.859 355.226 588.37C355.226 590.881 357.629 592.381 361.69 593.724C369.627 596.633 371.26 598.979 371.981 601.846C372.768 604.987 371.401 612.157 361.441 612.157L361.416 612.173ZM392.762 583.679L378.096 610.565C377.499 611.668 376.115 612.066 375.022 611.469C373.92 610.872 373.522 609.496 374.118 608.394L388.784 581.499C389.381 580.397 390.757 579.999 391.859 580.596C392.961 581.192 393.358 582.568 392.762 583.671V583.679Z" fill="#10CBB4"/>
<path d="M428.474 703.077C427.488 701.502 426.212 700.516 420.014 700.715C413.816 700.914 391.593 703.765 385.727 704.478C379.86 705.19 342.524 710.553 336.384 711.854C333.55 712.459 328.504 713.246 322.928 714.39L322.944 714.34C322.944 714.34 337.934 660.857 338.331 659.349C338.721 657.841 340.038 653.514 338.331 652.926C336.624 652.337 334.072 652.594 331.645 654.036C329.217 655.479 327.576 657.575 326.872 659.747C326.168 661.918 323.972 668.855 322.986 671.673C322 674.491 318.694 683.89 316.299 687.545C313.681 691.548 310.333 694.432 307.839 692.659C305.892 691.275 306.853 686.89 307.45 684.329C308.038 681.768 309.745 676.522 310.532 673.969C311.319 671.408 312.496 668.068 312.695 665.441C312.894 662.822 310.797 660.46 308.867 660.07C306.936 659.689 304.898 659.341 304.11 660.849C303.323 662.358 303.845 664.653 303.588 666.817C303.348 668.773 302.404 670.637 301.724 672.469C300.962 674.516 300.224 676.58 299.537 678.652C298.517 681.727 297.614 684.851 296.918 688.017C296.239 691.101 295.584 694.374 295.883 697.54C296.106 700.002 297.051 702.488 298.94 704.08C300.498 705.389 302.602 705.986 304.632 705.845C308.096 705.613 311.286 703.301 313.672 700.93C314.774 699.836 316.564 698.195 317.07 696.654C314.899 703.268 312.653 709.857 310.59 716.504C310.507 716.777 310.416 717.067 310.225 717.283C310.002 717.54 309.67 717.672 309.355 717.797C309.115 717.888 308.875 717.995 308.643 718.087C306.944 718.667 305.337 719.305 303.878 719.985C300.216 721.708 297.134 723.656 294.706 725.422C291.292 727.742 288.102 730.378 285.285 733.395C281.647 737.282 278.648 741.807 276.626 746.747C274.745 751.322 273.196 756.709 274.48 761.591C275.723 766.307 279.667 769.854 284.564 770.384C287.994 770.757 291.474 769.73 294.449 767.981C297.424 766.232 299.934 763.787 302.196 761.176C308.842 753.493 313.117 744.327 316.432 734.82C317.293 732.342 318.122 729.847 318.934 727.353C328.943 724.593 353.105 720.067 359.344 718.99C365.642 717.904 396.126 713.876 403.401 712.89C410.676 711.904 426.112 710.926 427.985 709.053C429.849 707.188 429.46 704.627 428.474 703.052V703.077ZM305.726 733.187C305.328 734.24 304.914 735.284 304.475 736.32C303.547 738.525 302.52 740.688 301.442 742.826C299.222 747.219 296.719 751.512 293.463 755.225C291.856 757.057 287.066 762.096 284.556 759.046C282.559 756.618 285.103 749.606 290.604 742.719C297.507 734.083 306.596 730.742 306.596 730.742C306.323 730.842 305.85 732.881 305.726 733.196V733.187Z" fill="white"/>
<path d="M373.613 683.302C373.613 683.302 372.411 686.401 368.475 687.578C364.54 688.755 368.608 672.759 368.608 672.759C368.608 672.759 371.997 657.111 372.536 654.774C373.066 652.437 372.85 650.182 370.273 649.403C367.697 648.633 365.153 648.483 364.382 650.937L363.612 653.39C363.612 653.39 360.852 649.735 355.226 650.555C349.6 651.376 342.781 659.25 338.721 671.574C334.652 683.898 336.135 691.25 336.84 694.267C337.544 697.284 339.176 701.328 344.919 702.19C350.661 703.052 354.903 698.825 357.107 693.33C357.107 693.33 357.215 697.938 361.151 699.248C365.086 700.557 370.572 696.662 372.552 694.805C374.524 692.949 373.638 683.302 373.638 683.302H373.613ZM361.921 663.319C361.234 666.817 359.626 672.577 357.596 678.727C355.425 685.299 353.006 690.653 349.666 690.007C345.929 689.286 345.441 683.583 345.681 680.392C345.913 677.202 346.824 673.422 348.415 669.784C351.423 662.913 355.152 660.791 357.886 659.722C360.09 658.86 362.65 659.647 361.93 663.319H361.921Z" fill="white"/>
<path d="M404.511 647.92C401.95 644.381 396.647 644.87 393.789 646.444C390.938 648.019 387.864 652.395 387.334 653.696L387.881 649.826C387.881 649.826 388.668 648.508 385.42 647.729C382.172 646.942 380.49 646.718 379.761 649.387C379.032 652.055 366.785 717.1 366.785 717.1C366.785 717.1 365.948 720.929 366.785 722.985C367.622 725.04 370.464 726.242 373.223 722.985C375.982 719.727 377.018 706.5 377.971 700.035C378.924 693.57 379.255 692.037 379.255 692.037C379.255 692.037 381.6 695.568 387.036 696.446C393.366 697.466 397.89 692.758 401.23 686.07C404.668 679.182 406.897 669.377 407.278 663.667C407.643 658.155 407.055 651.467 404.494 647.928L404.511 647.92ZM398.131 663.899C397.841 667.977 396.855 671.922 395.529 675.759C394.402 679.025 393.167 682.423 390.773 684.918C388.676 687.097 384.243 688.548 381.816 685.829C381.816 685.829 382.967 679.447 384.674 672.999C386.29 666.908 388.262 659.713 392.422 656.672C397.576 652.901 398.404 660.169 398.139 663.899H398.131Z" fill="white"/>
<path d="M436.768 674.16C435.351 673.696 433.884 675.958 433.056 676.961C432.161 678.047 431.026 678.909 429.948 679.821C427.57 681.835 422.209 685.399 419.144 682.506C417.851 681.288 417.694 678.395 417.95 676.539C418.174 674.931 419.218 672.187 419.326 672.187C421.928 672.129 424.629 671.052 426.062 670.439C430.313 668.615 434.05 665.806 436.627 661.935C440.19 656.581 444.2 646.801 437.621 642.151C436.643 641.455 435.5 641.016 434.315 640.817C430.172 640.113 426.634 640.767 423.411 643.494C419.094 647.157 417.644 649.072 414.039 655.76C409.946 663.352 407.651 672.635 408.148 681.254C408.272 683.36 408.554 685.465 409.275 687.446C409.996 689.427 411.189 691.266 412.871 692.526C415.514 694.499 419.102 694.839 422.234 694.051C426.17 693.065 430.628 690.247 431.871 689.261C433.114 688.274 438.558 683.36 439.312 681.793C440.066 680.227 439.013 677.649 439.013 677.649C438.64 676.729 437.928 674.533 436.759 674.152L436.768 674.16ZM427.33 651.235C428.01 650.539 428.797 649.884 429.75 649.644C431.117 649.304 432.277 649.967 432.525 651.335C432.915 653.44 431.804 655.893 430.578 657.534C429.418 659.092 427.894 660.344 426.261 661.388C425.515 661.869 424.753 662.258 423.933 662.59C421.679 663.526 421.024 663.294 420.983 663.501C421.455 660.94 424.074 654.575 427.33 651.235Z" fill="white"/>
<path d="M280.736 422.733C280.736 429.993 285.467 435.878 291.3 435.878C297.125 435.878 301.857 429.993 301.857 422.733C301.857 415.481 297.134 409.588 291.3 409.588C285.467 409.588 280.736 415.481 280.736 422.733Z" fill="#DE4A65"/>
<path d="M405.256 427.755C405.256 435.016 409.988 440.9 415.821 440.9C421.646 440.9 426.377 435.016 426.377 427.755C426.377 420.503 421.654 414.611 415.821 414.611C409.988 414.611 405.256 420.503 405.256 427.755Z" fill="#DE4A65"/>
<path d="M333.7 452.446C333.7 452.446 359.767 439.475 382.993 464.588" stroke="#DE4A65" stroke-width="2.07202" stroke-miterlimit="10" stroke-linecap="round"/>
<path d="M68.8148 702.969C67.199 702.969 65.5998 702.919 64.0172 702.828C42.9876 701.61 25.2557 692.427 12.744 676.273C1.54967 661.819 -2.37785 644.663 1.39224 626.686C14.4426 564.368 121.099 504.619 133.213 498.013C142.907 492.717 155.079 496.298 160.374 506.011C165.661 515.717 162.081 527.875 152.378 533.171C112.863 554.754 47.5614 601.457 40.5764 634.899C39.2009 641.48 40.3443 646.511 44.4044 651.749C49.84 658.769 56.8002 662.3 66.3207 662.847C67.2902 662.905 68.2762 662.929 69.2705 662.929C125.2 662.929 222.983 575.664 256.516 541.401C264.246 533.495 276.916 533.362 284.82 541.095C292.717 548.828 292.866 561.5 285.127 569.407C271.546 583.298 152.088 702.961 68.8231 702.961L68.8148 702.969Z" fill="#DE4A65"/>
<path d="M299.413 513.379C299.413 513.379 324.511 511.631 322.174 537.904C319.556 567.36 297.656 581.69 266.7 579.866C248.28 578.781 299.413 513.379 299.413 513.379Z" fill="#DE4A65"/>
<path d="M244.253 554.687C244.253 554.687 292.394 478.943 308.063 479.017C323.731 479.092 283.727 543.913 283.727 543.913L244.253 554.687Z" fill="#DE4A65"/>
<path d="M155.337 531.655C154.707 532.127 152.702 533.445 149.47 535.351C84.3925 573.742 53.2043 614.859 45.7718 652.205C44.6366 650.099 42.5071 648.757 39.2011 640.61C29.4651 616.591 79.8435 572.316 115.846 547.278C151.848 522.231 117.66 506.418 117.66 506.418C121.281 504.196 130.678 498.751 131.241 498.403C140.215 492.204 152.569 494.101 159.239 502.879C166.108 511.904 164.36 524.792 155.337 531.663V531.655Z" fill="#973043"/>
<path d="M361.117 120.334L359.087 141.759H306.497L309.811 106.792C311.062 93.564 316.539 85.6903 330.965 79.6981C342.781 74.6589 348.407 71.8244 349.153 63.9507C349.807 57.0219 345.921 54.8173 339.309 54.8173C332.697 54.8173 316.332 57.9668 298.053 61.4312L303.249 6.62218C323.508 2.21293 341.041 0.00830078 356.784 0.00830078C398.669 0.00830078 414.968 20.7948 411.496 57.3452C408.057 93.5723 388.221 106.8 361.117 120.351V120.334ZM332.481 149.948C356.104 149.948 361.905 158.451 360.239 176.097C358.806 191.214 351.323 200.356 327.7 200.356C304.077 200.356 297.39 191.222 298.882 175.467C300.498 158.46 308.228 149.948 332.481 149.948Z" fill="#DE4A65"/>
</g>
<defs>
<clipPath id="clip0_11025_892">
<rect width="667" height="1300" fill="white"/>
</clipPath>
</defs>
</svg>
