<svg width="856" height="1300" viewBox="0 0 856 1300" fill="none" xmlns="http://www.w3.org/2000/svg">
<g clip-path="url(#clip0_11025_929)">
<path d="M638.501 1239.3C630.675 1239.3 622.965 1235.75 617.931 1228.98C605.058 1211.69 594.556 1172.65 577.14 1105.12C568.542 1071.77 559.629 1037.29 550.238 1007.16C514.411 892.347 474.169 799.154 473.772 798.231C468.118 785.183 474.111 770.021 487.159 764.355C500.16 758.69 515.357 764.682 521.034 777.73C522.717 781.608 562.725 874.241 599.416 991.813C609.193 1023.17 618.258 1058.28 627.019 1092.25C637.438 1132.63 651.713 1187.94 659.236 1198.2C667.634 1209.63 665.251 1225.78 653.839 1234.21C649.213 1237.63 643.828 1239.28 638.501 1239.28V1239.3Z" fill="#DE4A65"/>
<path d="M541.991 828.31C536.641 815.11 521.595 808.744 508.465 814.094C495.277 819.421 488.677 834.244 494.004 847.433C494.203 847.923 519.189 914.799 519.189 914.799L581.812 937.717C560.365 873.996 543.054 830.95 541.991 828.322V828.31Z" fill="#973043"/>
<path d="M581.064 1120.3C581.064 1120.3 590.748 1190.58 605.081 1249.3C616.073 1294.35 643.045 1301.71 683.953 1299.71C726.076 1297.66 724.803 1276.93 694.571 1233.44C680.005 1212.5 652.601 1192.47 634.051 1155.84C619.729 1127.5 589.767 1081.96 581.053 1120.3H581.064Z" fill="#DE4A65"/>
<path d="M221.118 1204.17C219.751 1204.17 218.361 1204.06 216.971 1203.83C202.93 1201.55 193.386 1188.33 195.664 1174.29C196.482 1169.24 215.896 1049.89 232.542 989.009C249.199 928.08 292.163 819.316 293.974 814.713C299.219 801.502 314.171 795.03 327.394 800.24C340.629 805.473 347.1 820.437 341.855 833.66C341.423 834.758 298.121 944.387 282.211 1002.58C266.289 1060.83 246.7 1181.31 246.501 1182.52C244.445 1195.17 233.523 1204.16 221.106 1204.16L221.118 1204.17Z" fill="#DE4A65"/>
<path d="M341.867 833.672C347.112 820.449 340.628 805.485 327.405 800.252C314.182 795.03 299.23 801.513 293.985 814.725C293.459 816.045 289.558 825.939 283.869 840.786L316.261 901.049C329.8 864.23 341.645 834.256 341.867 833.672Z" fill="#973043"/>
<path d="M213.396 50.8392C210.453 50.2084 207.357 50.0916 204.203 50.5706C161.111 57.0186 -5.55771 123.952 0.142759 241.887C4.93208 341.049 170.678 369.271 189.578 372.18C203.642 374.329 216.772 364.668 218.933 350.616C221.082 336.552 211.527 323.504 197.37 321.261C150.703 314.112 53.7715 284.547 51.5988 239.398C48.0594 166.425 170.596 107.68 211.854 101.501C225.919 99.3983 235.614 86.2802 233.511 72.216C231.876 61.294 223.594 53.0119 213.408 50.8392H213.396Z" fill="#DE4A65"/>
<path d="M263.1 36.1559C263.1 36.1559 250.075 8.61145 220.031 23.3883C188.994 38.6557 186.039 66.1184 189.38 86.6074C192.849 107.914 263.1 36.1559 263.1 36.1559Z" fill="#DE4A65"/>
<path d="M605.397 776.352C610.49 695.623 610.49 417.223 618.129 264.104C625.78 110.986 660.497 -6.22378 589.954 0.703224H589.931C501.714 9.55763 299.744 28.0024 246.08 39.2164C246.08 39.2164 207.859 46.9611 205.301 91.5135C203.934 115.413 186.985 266.686 183.679 415.354C180.829 543.731 191.377 670.636 192.557 706.766C195.103 784.716 200.208 843.181 279.197 843.181C338.655 843.181 463.072 854.219 543.813 851.357C540.227 851.486 536.582 851.591 532.844 851.673C553.205 850.178 601.367 839.886 605.385 776.364L605.397 776.352Z" fill="#DE4A65"/>
<path d="M579.277 693.672C583.623 625.36 582.98 432.7 584.674 303.003C586.426 168.294 619.052 80.1359 560.564 80.1359C484.776 80.1359 313.493 98.2535 267.609 107.75C267.609 107.75 234.937 114.304 232.752 151.987C231.502 173.609 218.127 292.396 215.254 425.82C213.548 504.961 214.553 586.566 215.838 665.637C216.574 710.271 217.415 753.083 275.307 753.083C326.144 753.083 457.617 759.554 526.642 757.136C523.581 757.241 520.45 757.323 517.261 757.393C534.678 756.12 575.843 747.429 579.277 693.683V693.672Z" fill="#742384"/>
<path d="M687.154 118.415C688.918 90.6841 695.389 61.2356 682.984 35.0929C667.821 3.0979 618.993 -2.21709 589.954 0.69155C660.509 -6.22377 625.78 110.986 618.129 264.093C610.489 417.223 610.49 695.611 605.396 776.352C602.535 821.582 573.039 846.977 533.849 851.614C570.983 847.222 615.08 852.222 643.466 819.619C667.249 792.309 669.094 753.41 669.094 717.887C669.094 651.082 670.263 383.697 687.154 118.404V118.415Z" fill="#973043"/>
<path d="M673.627 424.068C674.713 387.038 676.057 348.175 677.692 308.236L638.805 327.744C638.805 327.744 647.111 418.157 673.627 424.08V424.068Z" fill="#6B222F"/>
<path d="M395.391 793.301C395.391 803.523 387.097 811.805 376.876 811.805C366.666 811.805 358.384 803.523 358.384 793.301C358.384 783.092 366.666 774.798 376.876 774.798C387.097 774.798 395.391 783.092 395.391 793.301Z" fill="#973043"/>
<path d="M253.965 1138.73C253.965 1138.73 248.031 1192.24 241.933 1199.25C230.346 1212.55 119.701 1232.96 102.003 1232.3C78.9212 1231.44 98.5808 1181.82 139.348 1159.75C180.128 1137.7 218.326 1130.14 253.965 1138.72V1138.73Z" fill="#DE4A65"/>
<path d="M365.323 74.7859C361.012 74.7859 357.298 71.5618 356.784 67.1814C356.223 62.4621 359.611 58.1868 364.33 57.6261L460.198 46.3887C464.941 45.7929 469.193 49.2156 469.754 53.9348C470.314 58.654 466.927 62.9294 462.207 63.4901L366.339 74.7275C366 74.7625 365.662 74.7859 365.323 74.7859Z" fill="#973043"/>
<path d="M447.349 406.137C441.835 381.42 416.966 365.93 391.793 371.549C366.62 377.168 350.686 401.745 356.2 426.463C358.022 434.628 361.959 441.788 367.321 447.512C370.077 450.456 363.933 466.716 367.356 468.842C370.159 470.583 382.448 458.341 385.578 459.462C393.673 462.359 402.691 463.072 411.756 461.051C436.929 455.444 452.863 430.855 447.361 406.137H447.349ZM391.875 439.055C381.256 439.055 378.336 432.081 377.588 428.6C377.273 427.222 377.261 426.264 377.261 425.797C377.261 424.15 378.593 422.818 380.24 422.818C381.77 422.818 383.02 423.974 383.184 425.458C383.184 425.458 383.195 425.481 383.195 425.493C383.207 425.586 383.219 425.75 383.23 425.96C383.254 426.124 383.277 426.287 383.277 426.474C383.277 426.591 383.277 426.708 383.289 426.836C383.312 427.082 383.347 427.339 383.394 427.607C383.499 428.191 383.698 428.834 384.025 429.476C384.06 429.546 384.095 429.605 384.13 429.675C385.134 431.544 387.202 433.378 391.197 433.6C397.213 433.775 398.988 431.754 399.012 429.266C398.778 426.369 398.603 424.29 391.664 421.451C383.534 418.134 378.359 416.125 378.359 409.186C378.359 402.247 384.807 399.374 390.706 399.374C392.19 399.374 393.487 399.549 394.631 399.829C396.933 400.285 399.479 401.231 401.395 403.1C401.885 403.521 402.388 404.151 402.843 404.911C402.89 404.981 402.937 405.062 402.983 405.133C403.1 405.343 403.217 405.565 403.322 405.798C403.357 405.868 403.392 405.939 403.427 406.02C404.011 407.317 404.42 408.836 404.42 410.401C404.42 410.669 404.455 411.137 404.362 411.662C404.362 411.709 404.338 411.756 404.327 411.803C404.303 411.919 404.257 412.048 404.21 412.165C404.187 412.211 404.175 412.27 404.152 412.317C404.128 412.363 404.105 412.398 404.082 412.445C403.591 413.426 402.598 414.092 401.43 414.092C400.414 414.092 399.514 413.566 398.988 412.784C398.942 412.714 398.907 412.644 398.86 412.574C398.778 412.433 398.72 412.282 398.661 412.13C398.661 412.106 398.65 412.095 398.638 412.071C398.615 411.989 398.591 411.919 398.568 411.838C398.439 411.37 398.369 410.868 398.369 410.436C398.369 410.342 398.369 410.261 398.358 410.167C398.358 410.027 398.346 409.899 398.323 409.77C398.241 409.034 398.019 408.45 397.75 407.983C397.727 407.936 397.692 407.889 397.668 407.843C397.622 407.761 397.563 407.679 397.517 407.597C396.033 405.46 392.856 404.373 390.543 404.373C387.412 404.373 384.06 406.09 384.06 409.233C384.06 412.375 387.074 414.267 392.155 415.938C402.107 419.582 404.163 422.526 405.051 426.124C406.032 430.06 404.327 439.055 391.828 439.055H391.875ZM431.182 403.334L412.796 437.046C412.048 438.424 410.319 438.926 408.941 438.179C407.562 437.431 407.06 435.702 407.808 434.324L426.194 400.612C426.942 399.234 428.671 398.731 430.049 399.479C431.427 400.226 431.93 401.955 431.182 403.334Z" fill="#10CBB4"/>
<path d="M475.968 553.029C474.73 551.055 473.13 549.829 465.361 550.074C457.593 550.319 429.722 553.894 422.363 554.793C415.003 555.681 368.185 562.409 360.487 564.045C356.936 564.792 350.605 565.797 343.619 567.222C343.619 567.199 343.631 567.175 343.643 567.152C343.643 567.152 362.449 500.101 362.94 498.209C363.431 496.317 365.078 490.897 362.94 490.149C360.802 489.413 357.602 489.74 354.553 491.551C351.516 493.361 349.46 495.99 348.572 498.711C347.684 501.433 344.939 510.124 343.701 513.663C342.463 517.203 338.316 528.978 335.314 533.557C332.02 538.568 327.838 542.189 324.707 539.97C322.266 538.241 323.469 532.739 324.217 529.527C324.952 526.326 327.09 519.749 328.083 516.537C329.064 513.336 330.548 509.143 330.793 505.849C331.038 502.554 328.41 499.599 325.992 499.12C323.574 498.641 321.016 498.209 320.023 500.09C319.042 501.982 319.696 504.856 319.369 507.566C319.077 510.019 317.885 512.355 317.033 514.656C316.075 517.226 315.152 519.808 314.287 522.413C313.014 526.267 311.869 530.181 311.005 534.152C310.152 538.019 309.335 542.119 309.697 546.091C309.977 549.174 311.169 552.293 313.528 554.291C315.479 555.938 318.119 556.674 320.665 556.51C325.011 556.218 329.006 553.321 332.008 550.354C333.386 548.988 335.641 546.92 336.272 544.993C333.55 553.286 330.735 561.545 328.153 569.874C328.048 570.224 327.931 570.575 327.698 570.855C327.417 571.182 327.008 571.346 326.611 571.497C326.308 571.614 326.015 571.743 325.712 571.859C323.586 572.595 321.565 573.378 319.743 574.242C315.14 576.404 311.285 578.845 308.237 581.064C303.95 583.973 299.955 587.279 296.415 591.064C291.848 595.946 288.098 601.612 285.552 607.803C283.192 613.538 281.253 620.29 282.865 626.411C284.43 632.333 289.371 636.772 295.504 637.438C299.803 637.905 304.171 636.621 307.91 634.424C311.636 632.228 314.79 629.168 317.617 625.897C325.945 616.26 331.319 604.766 335.466 592.851C336.552 589.744 337.592 586.625 338.608 583.482C351.154 580.025 381.467 574.348 389.281 573.004C397.178 571.649 435.399 566.591 444.522 565.353C453.645 564.115 473.013 562.888 475.349 560.54C477.697 558.192 477.195 554.992 475.968 553.018V553.029ZM322.044 590.783C321.553 592.103 321.028 593.411 320.479 594.72C319.31 597.488 318.025 600.198 316.67 602.873C313.89 608.375 310.748 613.76 306.671 618.409C304.662 620.711 298.646 627.019 295.504 623.199C292.993 620.15 296.181 611.366 303.085 602.733C311.741 591.905 323.13 587.711 323.13 587.711C322.791 587.84 322.196 590.386 322.044 590.783Z" fill="white"/>
<path d="M407.177 528.23C407.177 528.23 405.67 532.108 400.729 533.592C395.799 535.075 400.893 515.007 400.893 515.007C400.893 515.007 405.145 495.394 405.81 492.45C406.476 489.518 406.208 486.691 402.972 485.722C399.736 484.752 396.547 484.577 395.589 487.649L394.62 490.721C394.62 490.721 391.162 486.142 384.107 487.17C377.051 488.198 368.5 498.069 363.407 513.523C358.314 528.977 360.16 538.182 361.048 541.967C361.935 545.752 363.98 550.821 371.175 551.908C378.371 552.982 383.698 547.691 386.454 540.799C386.454 540.799 386.583 546.569 391.524 548.216C396.454 549.864 403.346 544.969 405.822 542.644C408.298 540.32 407.177 528.218 407.177 528.218V528.23ZM392.517 503.173C391.653 507.554 389.643 514.785 387.097 522.494C384.375 530.73 381.35 537.446 377.144 536.629C372.46 535.729 371.853 528.58 372.145 524.574C372.437 520.567 373.582 515.836 375.579 511.269C379.352 502.659 384.025 499.996 387.447 498.653C390.216 497.566 393.417 498.559 392.517 503.162V503.173Z" fill="white"/>
<path d="M445.924 483.876C442.723 479.437 436.053 480.056 432.479 482.03C428.904 484.004 425.049 489.483 424.384 491.118L425.073 486.259C425.073 486.259 426.066 484.612 421.989 483.631C417.924 482.649 415.81 482.369 414.887 485.71C413.976 489.051 398.615 570.598 398.615 570.598C398.615 570.598 397.563 575.399 398.615 577.98C399.666 580.562 403.229 582.057 406.686 577.98C410.144 573.904 411.452 557.316 412.644 549.209C413.835 541.103 414.256 539.175 414.256 539.175C414.256 539.175 417.188 543.602 424.01 544.7C431.941 545.974 437.619 540.075 441.812 531.687C446.134 523.055 448.914 510.755 449.393 503.606C449.849 496.702 449.113 488.315 445.912 483.876H445.924ZM437.922 503.909C437.56 509.026 436.322 513.967 434.651 518.78C433.238 522.868 431.684 527.132 428.694 530.262C426.066 532.996 420.505 534.806 417.468 531.395C417.468 531.395 418.917 523.394 421.054 515.31C423.075 507.671 425.552 498.653 430.773 494.845C437.233 490.114 438.273 499.225 437.934 503.909H437.922Z" fill="white"/>
<path d="M486.364 516.782C484.589 516.198 482.743 519.037 481.703 520.298C480.582 521.665 479.157 522.74 477.802 523.884C474.823 526.419 468.095 530.881 464.252 527.26C462.64 525.73 462.429 522.109 462.756 519.773C463.037 517.752 464.345 514.317 464.473 514.317C467.744 514.247 471.132 512.892 472.919 512.133C478.257 509.855 482.942 506.327 486.166 501.468C490.628 494.763 495.663 482.498 487.416 476.669C486.189 475.804 484.752 475.244 483.269 474.998C478.07 474.11 473.632 474.928 469.602 478.351C464.181 482.941 462.371 485.336 457.85 493.723C452.722 503.232 449.837 514.878 450.468 525.683C450.62 528.323 450.97 530.963 451.881 533.44C452.792 535.916 454.276 538.229 456.39 539.806C459.708 542.271 464.205 542.703 468.13 541.722C473.059 540.483 478.655 536.956 480.22 535.717C481.785 534.479 488.607 528.323 489.553 526.361C490.499 524.398 489.179 521.163 489.179 521.163C488.712 520.006 487.813 517.249 486.353 516.77L486.364 516.782ZM474.531 488.035C475.384 487.158 476.377 486.341 477.557 486.037C479.274 485.605 480.722 486.446 481.038 488.151C481.528 490.791 480.138 493.863 478.596 495.919C477.136 497.87 475.22 499.435 473.188 500.755C472.253 501.363 471.295 501.842 470.267 502.262C467.441 503.43 466.623 503.15 466.564 503.407C467.149 500.195 470.443 492.216 474.519 488.023L474.531 488.035Z" fill="white"/>
<path d="M484.378 200.196C484.378 209.296 478.444 216.678 471.132 216.678C463.819 216.678 457.897 209.308 457.897 200.196C457.897 191.096 463.819 183.714 471.132 183.714C478.444 183.714 484.378 191.096 484.378 200.196Z" fill="#DE4A65"/>
<path d="M328.235 206.492C328.235 215.592 322.301 222.975 314.988 222.975C307.676 222.975 301.753 215.604 301.753 206.492C301.753 197.393 307.676 190.01 314.988 190.01C322.301 190.01 328.235 197.393 328.235 206.492Z" fill="#DE4A65"/>
<path d="M569.383 26.659C584.452 1.68444 608.574 1.49753 638.022 17.4308C708.472 55.5351 689.035 95.0529 668.546 98.3587C536.547 119.642 558.555 44.6015 569.383 26.659Z" fill="#973043"/>
<path d="M632.147 93.9082L631.89 102.249C631.89 102.249 656.339 99.0713 658.92 96.7234C658.92 96.7234 686.243 102.833 688.789 102.249L664.562 84.2828L632.158 93.9082H632.147Z" fill="#6B222F"/>
<path d="M642.064 38.8309C645.008 38.2001 648.104 38.0833 651.257 38.5623C694.361 45.022 861.03 111.956 855.318 229.89C850.528 329.052 684.783 357.274 665.882 360.183C651.818 362.332 638.688 352.672 636.527 338.619C634.378 324.555 643.933 311.507 658.091 309.264C704.758 302.115 801.689 272.55 803.862 227.402C807.401 154.429 684.864 95.6837 643.606 89.5043C629.542 87.4017 619.847 74.2836 621.949 60.2193C623.585 49.2974 631.867 41.0153 642.053 38.8426L642.064 38.8309Z" fill="#DE4A65"/>
<path d="M572.421 20.5263C582.443 2.11664 608.446 -4.55337 637.894 11.3799C708.344 49.4842 688.918 89.037 668.417 92.3078C524.854 115.238 565.914 32.488 572.421 20.5263Z" fill="#DE4A65"/>
<path fill-rule="evenodd" clip-rule="evenodd" d="M354.892 265.565C348.525 267.13 335.652 273.309 334.753 281.474C329.683 327.44 367.542 316.682 391.466 317.5C415.424 318.306 445.667 321.903 445.667 285.855C445.667 275.751 430.177 267.691 417.527 264.899C407.375 262.656 366.666 262.656 354.892 265.565Z" fill="#3F0D4A"/>
<path fill-rule="evenodd" clip-rule="evenodd" d="M342.99 312C354.49 321 375.824 316.962 391.477 317.5C402.843 317.873 416.49 319.5 426.49 316C423.99 304 407.99 293.5 388.043 292.735C365.49 292.735 352.697 299.197 342.99 312Z" fill="#DE4A65"/>
<path d="M502.145 173.609C502.145 173.609 492.765 152.98 476.26 145.107" stroke="#DE4A65" stroke-width="4.0534" stroke-miterlimit="10" stroke-linecap="round"/>
<path d="M288.811 179.111C288.811 179.111 298.191 158.482 314.696 150.609" stroke="#DE4A65" stroke-width="4.0534" stroke-miterlimit="10" stroke-linecap="round"/>
</g>
<defs>
<clipPath id="clip0_11025_929">
<rect width="855.461" height="1300" fill="white"/>
</clipPath>
</defs>
</svg>
