<svg width="1000" height="1300" viewBox="0 0 1000 1300" fill="none" xmlns="http://www.w3.org/2000/svg">
<g clip-path="url(#clip0_11527_21892)">
<mask id="mask0_11527_21892" style="mask-type:alpha" maskUnits="userSpaceOnUse" x="206" y="1150" width="794" height="150">
<path d="M206.438 1150.24H999.108V1300H206.438V1150.24Z" fill="white"/>
</mask>
<g mask="url(#mask0_11527_21892)">
<path fill-rule="evenodd" clip-rule="evenodd" d="M206.438 1171.12L657.306 1288.75C657.306 1288.75 930.238 1331.32 997.306 1250.84C1040.36 1199.18 297.573 1150.24 297.573 1150.24L206.438 1171.12Z" fill="#742384"/>
</g>
<path d="M301.823 323.423C315.159 325.381 324.382 337.779 322.424 351.114L320.52 363.79L319.236 372.024L317.939 380.084L316.629 387.97L315.306 395.683L313.97 403.223L312.622 410.591L311.26 417.786L309.884 424.808L308.495 431.659L307.093 438.338L305.677 444.845L304.246 451.181L302.802 457.345C302.56 458.359 302.318 459.365 302.075 460.364L300.609 466.272C300.364 467.242 300.118 468.206 299.871 469.162L298.384 474.815C298.135 475.743 297.885 476.663 297.635 477.577L296.126 482.974L294.602 488.202L293.063 493.259C292.805 494.088 292.547 494.91 292.288 495.725L290.727 500.528C290.465 501.315 290.203 502.094 289.94 502.867L288.356 507.417C287.825 508.905 287.292 510.366 286.756 511.798L285.14 516.011C284.599 517.387 284.056 518.735 283.509 520.055C275.195 540.145 265.953 554.719 254.619 563.937C239.568 576.178 221.144 578.307 204.094 569.366C164.607 548.657 142.637 498.887 134.624 421.384L133.996 414.952L133.432 408.394C133.254 406.188 133.086 403.96 132.929 401.712C131.988 388.267 142.125 376.605 155.57 375.664C169.015 374.723 180.678 384.859 181.619 398.305C181.772 400.499 181.936 402.666 182.11 404.805L182.662 411.136L183.273 417.301C183.913 423.381 184.642 429.21 185.457 434.79L186.299 440.286C193.553 485.393 206.641 513.174 223.685 524.329L224.902 525.089L225.47 524.504C228.911 520.799 233.188 513.658 237.662 503.169L238.41 501.39C239.363 499.088 240.311 496.666 241.255 494.127L242.668 490.229C242.902 489.565 243.137 488.893 243.371 488.214L244.773 484.05L246.167 479.709C246.399 478.971 246.631 478.225 246.862 477.472L248.245 472.867C248.475 472.084 248.704 471.295 248.934 470.498L250.306 465.628C250.534 464.801 250.761 463.968 250.989 463.127L252.349 457.993L253.701 452.683L255.044 447.198L256.38 441.538L257.707 435.702L259.026 429.692L260.336 423.508L261.637 417.149L262.929 410.616L264.212 403.909L265.486 397.029L266.75 389.975L268.005 382.748L269.25 375.348L270.486 367.776L271.712 360.031L272.927 352.113L274.133 344.024C276.09 330.689 288.488 321.465 301.823 323.423Z" fill="#DE4A65"/>
<path fill-rule="evenodd" clip-rule="evenodd" d="M126.627 356.37C134.308 339.658 141.498 325.897 172.988 323.034C204.481 320.162 188.368 352.399 183.64 368.597C178.917 384.79 185.544 419.964 183.64 427.942C181.736 435.919 140.798 439.65 139.168 432.868C139.168 432.868 115.528 380.509 126.627 356.37Z" fill="#DE4A65"/>
<path fill-rule="evenodd" clip-rule="evenodd" d="M671.903 1220C664.582 1218.98 657.845 1214.68 654.02 1207.76C644.249 1190.06 639.56 1152.51 632.131 1087.67C628.465 1055.64 624.663 1022.51 619.831 993.379C601.399 882.312 576.003 790.703 575.749 789.792C572.174 776.961 579.769 763.689 592.714 760.141C605.61 756.578 619.036 764.107 622.627 776.945C623.689 780.765 648.945 871.819 667.823 985.555C672.85 1015.88 676.719 1049.61 680.453 1082.23C684.903 1121.01 690.992 1174.13 696.678 1184.61C703.033 1196.3 698.683 1210.96 686.912 1217.29C682.135 1219.86 676.886 1220.69 671.903 1220Z" fill="#DE4A65"/>
<path fill-rule="evenodd" clip-rule="evenodd" d="M593.349 760.147C579.945 763.73 572.075 777.117 575.782 790.059C575.918 790.536 582.579 815.323 592.129 855.214L592.415 856.341L648.179 882.871C634.458 820.802 625.062 779.681 624.324 777.101C620.606 764.147 606.704 756.557 593.349 760.147Z" fill="#DE4A65"/>
<path fill-rule="evenodd" clip-rule="evenodd" d="M640.08 1231.8C644.469 1275.41 680.274 1267.6 719.113 1268.97C758.452 1270.37 785.524 1249.17 743.511 1221.71C722.618 1208.05 692.233 1184.84 679.634 1148.1C669.91 1119.69 647.762 1073.11 634.519 1107.87C634.519 1107.87 634.356 1174.93 640.08 1231.8Z" fill="#DE4A65"/>
<path fill-rule="evenodd" clip-rule="evenodd" d="M321.718 1155.15C308.469 1154.84 297.979 1143.6 298.285 1130.05C298.391 1125.18 301.091 1010.04 308.693 950.426C316.298 890.758 342.074 782.543 343.165 777.966C346.32 764.819 359.303 756.759 372.167 759.957C385.043 763.174 392.932 776.445 389.78 789.604C389.525 790.703 363.541 899.78 356.273 956.76C349.005 1013.79 346.293 1130.03 346.266 1131.2C345.979 1143.39 337.043 1153.31 325.587 1154.92C324.324 1155.1 323.029 1155.18 321.718 1155.15Z" fill="#DE4A65"/>
<path fill-rule="evenodd" clip-rule="evenodd" d="M389.823 786.458C392.708 773.251 380.08 763.191 368.294 759.962C356.515 756.753 346.012 765.111 343.123 778.31C342.836 779.627 340.026 789.962 336.955 804.768L374.372 858.553C382.178 822.244 389.701 790.298 389.823 789.722" fill="#DE4A65"/>
<path fill-rule="evenodd" clip-rule="evenodd" d="M657.002 726.552C661.786 650.961 661.786 390.286 668.969 246.908C676.152 103.542 708.781 -6.20696 642.494 0.272748H642.474C559.589 8.56267 369.825 25.8366 319.395 36.3312C319.395 36.3312 283.485 43.5839 281.087 85.2938C279.8 107.675 263.872 249.31 260.773 388.527C258.098 508.731 268.003 627.558 269.119 661.388C271.514 734.369 276.306 789.117 350.524 789.117C406.384 789.117 523.291 799.45 599.148 796.776C595.78 796.898 592.349 796.993 588.842 797.068C607.973 795.664 653.222 786.029 657.002 726.552Z" fill="#DE4A65"/>
<path fill-rule="evenodd" clip-rule="evenodd" d="M640.789 286.432C642.439 159.194 673.088 75.9277 618.138 75.9277C546.936 75.9277 386.004 93.0384 342.894 102.009C342.894 102.009 312.194 108.196 310.148 143.79C308.973 164.21 296.409 276.414 293.706 402.431C292.103 477.183 293.041 554.263 294.26 628.94C294.945 671.098 295.74 711.533 350.132 711.533C397.888 711.533 521.416 717.644 586.263 715.36C583.39 715.456 580.45 715.54 577.454 715.607C593.813 714.41 632.495 706.19 635.724 655.431C639.808 590.911 639.202 408.936 640.789 286.432Z" fill="#742384"/>
<mask id="mask1_11527_21892" style="mask-type:alpha" maskUnits="userSpaceOnUse" x="586" y="0" width="148" height="800">
<path d="M586.491 0.674316H733.481V799.332H586.491V0.674316Z" fill="white"/>
</mask>
<g mask="url(#mask1_11527_21892)">
<path fill-rule="evenodd" clip-rule="evenodd" d="M730.422 111.72C732.074 85.7167 738.149 58.0943 726.503 33.5727C712.278 3.58028 666.431 -1.40858 639.165 1.32483C705.402 -5.16503 672.797 104.756 665.62 248.35C658.443 391.953 658.443 653.036 653.662 728.75C650.98 771.173 623.287 794.984 586.491 799.333C621.35 795.213 662.749 799.898 689.402 769.321C711.729 743.709 713.469 707.234 713.469 673.924C713.469 611.265 714.564 360.515 730.422 111.72Z" fill="#973043"/>
</g>
<path fill-rule="evenodd" clip-rule="evenodd" d="M721.292 282.008L688.753 300.269C688.753 300.269 695.706 384.935 717.888 390.473C718.801 355.797 719.918 319.409 721.292 282.008Z" fill="#6B222F"/>
<path fill-rule="evenodd" clip-rule="evenodd" d="M444.696 764.677C435.72 764.677 428.438 757.396 428.438 748.407C428.438 739.43 435.72 732.138 444.696 732.138C453.687 732.138 460.977 739.43 460.977 748.407C460.977 757.396 453.687 764.677 444.696 764.677Z" fill="#973043"/>
<path fill-rule="evenodd" clip-rule="evenodd" d="M343.733 1150.94C332.947 1163.73 227.587 1172.02 211.117 1171.39C189.639 1170.56 202.193 1130.66 240.121 1109.44C278.072 1088.24 312.998 1086.37 346.167 1094.63C346.167 1094.63 349.409 1144.2 343.733 1150.94Z" fill="#DE4A65"/>
<path fill-rule="evenodd" clip-rule="evenodd" d="M423.07 63.2567C422.537 58.7592 425.785 54.691 430.305 54.1614L522.254 43.4492C526.803 42.8876 530.887 46.1453 531.42 50.6428C531.954 55.1363 528.706 59.2126 524.181 59.7382L432.232 70.4503C431.901 70.4864 431.582 70.5025 431.259 70.5025C427.13 70.5025 423.559 67.4293 423.07 63.2567Z" fill="#973043"/>
<path fill-rule="evenodd" clip-rule="evenodd" d="M505.953 362.697L488 395.326C487.267 396.658 485.582 397.15 484.236 396.423C482.89 395.696 482.397 394.026 483.13 392.691L501.083 360.062C501.813 358.727 503.501 358.238 504.844 358.965C506.19 359.692 506.686 361.362 505.953 362.697ZM467.585 397.266C457.22 397.266 454.369 390.514 453.639 387.145C453.336 385.817 453.317 384.883 453.317 384.429C453.317 382.837 454.619 381.55 456.224 381.55C457.716 381.55 458.933 382.671 459.1 384.106C459.103 384.116 459.113 384.125 459.116 384.134C459.128 384.225 459.138 384.382 459.147 384.586C459.173 384.749 459.198 384.905 459.198 385.087C459.198 385.197 459.204 385.313 459.214 385.435C459.239 385.673 459.271 385.923 459.315 386.184C459.422 386.744 459.615 387.365 459.931 387.995C459.969 388.06 460.001 388.12 460.032 388.183C461.015 389.99 463.031 391.77 466.934 391.974C472.812 392.143 474.541 390.191 474.557 387.775C474.332 384.974 474.165 382.959 467.389 380.215C459.454 377.003 454.398 375.064 454.398 368.346C454.398 361.629 460.696 358.856 466.454 358.856C467.898 358.856 469.165 359.022 470.29 359.294C472.54 359.736 475.024 360.654 476.892 362.462V362.449C477.366 362.866 477.859 363.477 478.308 364.213C478.352 364.285 478.396 364.361 478.44 364.436C478.554 364.64 478.665 364.853 478.769 365.075C478.807 365.147 478.842 365.213 478.873 365.285C479.445 366.538 479.843 368.014 479.843 369.527C479.843 369.791 479.881 370.242 479.79 370.743C479.78 370.79 479.771 370.834 479.758 370.878C479.73 370.997 479.692 371.113 479.648 371.232C479.629 371.282 479.613 371.332 479.591 371.382C479.572 371.423 479.55 371.461 479.527 371.504C479.047 372.448 478.074 373.102 476.933 373.102C475.938 373.102 475.072 372.595 474.55 371.833C474.509 371.771 474.465 371.705 474.427 371.633C474.348 371.498 474.285 371.351 474.231 371.201C474.222 371.182 474.212 371.163 474.206 371.141C474.18 371.066 474.152 370.991 474.136 370.915C474.007 370.458 473.947 369.972 473.947 369.562C473.947 369.471 473.937 369.39 473.934 369.302C473.934 369.17 473.918 369.045 473.906 368.92C473.823 368.211 473.612 367.647 473.352 367.187C473.324 367.14 473.299 367.096 473.27 367.052C473.223 366.968 473.169 366.889 473.119 366.814C471.665 364.746 468.574 363.7 466.315 363.7C463.265 363.7 459.988 365.357 459.988 368.403C459.988 371.448 462.927 373.272 467.895 374.898C477.609 378.426 479.613 381.274 480.488 384.752C481.449 388.559 479.783 397.266 467.585 397.266ZM521.738 365.404C516.359 341.482 492.073 326.496 467.503 331.929C442.933 337.362 427.375 361.155 432.754 385.078C434.53 392.983 438.372 399.91 443.606 405.453C446.301 408.301 440.303 424.042 443.637 426.101C446.38 427.786 458.367 415.93 461.429 417.018C469.33 419.819 478.14 420.511 486.989 418.553C511.556 413.123 527.117 389.326 521.738 365.404Z" fill="#10CBB4"/>
<path fill-rule="evenodd" clip-rule="evenodd" d="M396.929 548.805C396.443 550.123 395.929 551.432 395.39 552.732C394.247 555.492 392.987 558.194 391.661 560.87C388.928 566.365 385.853 571.736 381.854 576.384C379.884 578.679 373.987 584.985 370.902 581.164C368.443 578.12 371.572 569.345 378.341 560.728C386.827 549.92 397.995 545.734 397.995 545.734C397.659 545.857 397.075 548.407 396.929 548.805ZM547.821 511.112C546.611 509.143 545.041 507.912 537.427 508.158C529.811 508.403 502.489 511.975 495.275 512.867C488.062 513.756 442.169 520.469 434.612 522.101C431.128 522.854 424.93 523.849 418.075 525.268C418.081 525.246 418.087 525.226 418.097 525.204C418.097 525.204 436.529 458.254 437.011 456.366C437.494 454.479 439.106 449.065 437.011 448.325C434.914 447.588 431.772 447.914 428.789 449.721C425.809 451.525 423.793 454.152 422.924 456.87C422.057 459.585 419.36 468.27 418.151 471.8C416.945 475.329 412.873 487.091 409.931 491.661C406.707 496.667 402.597 500.278 399.534 498.064C397.142 496.331 398.325 490.84 399.052 487.64C399.776 484.437 401.873 477.873 402.838 474.67C403.806 471.47 405.256 467.284 405.498 464C405.739 460.72 403.162 457.763 400.791 457.284C398.424 456.803 395.91 456.366 394.942 458.254C393.974 460.145 394.619 463.018 394.298 465.723C394.006 468.17 392.845 470.503 392.007 472.798C391.074 475.365 390.166 477.944 389.325 480.539C388.071 484.395 386.954 488.299 386.101 492.265C385.269 496.124 384.463 500.219 384.825 504.185C385.098 507.259 386.262 510.378 388.582 512.369C390.499 514.008 393.079 514.748 395.577 514.583C399.836 514.295 403.758 511.399 406.694 508.429C408.049 507.062 410.252 505.003 410.874 503.077C408.208 511.351 405.447 519.602 402.911 527.919C402.806 528.264 402.692 528.62 402.46 528.895C402.184 529.218 401.781 529.386 401.391 529.544C401.096 529.661 400.807 529.787 400.512 529.91C398.427 530.64 396.453 531.432 394.66 532.288C390.15 534.448 386.364 536.885 383.384 539.099C379.182 541.998 375.272 545.304 371.8 549.082C367.326 553.953 363.641 559.613 361.153 565.789C358.843 571.517 356.932 578.259 358.516 584.364C360.045 590.276 364.895 594.713 370.909 595.376C375.126 595.838 379.408 594.558 383.063 592.37C386.719 590.179 389.811 587.121 392.584 583.857C400.75 574.241 406.009 562.761 410.087 550.867C411.147 547.764 412.169 544.645 413.162 541.519C425.466 538.061 455.174 532.398 462.841 531.057C470.575 529.703 508.052 524.654 516.996 523.423C525.939 522.195 544.92 520.963 547.214 518.623C549.512 516.283 549.03 513.083 547.821 511.112Z" fill="white"/>
<path fill-rule="evenodd" clip-rule="evenodd" d="M468.75 461.185C467.881 465.446 465.852 472.47 463.289 479.962C460.551 487.971 457.506 494.494 453.286 493.707C448.574 492.829 447.958 485.881 448.255 481.989C448.548 478.099 449.694 473.499 451.71 469.059C455.51 460.688 460.202 458.105 463.651 456.802C466.435 455.751 469.659 456.711 468.75 461.185ZM483.499 485.541C483.499 485.541 481.978 489.311 477.019 490.753C472.059 492.191 477.185 472.693 477.185 472.693C477.185 472.693 481.46 453.624 482.134 450.77C482.805 447.922 482.532 445.171 479.278 444.227C476.025 443.286 472.821 443.11 471.847 446.1L470.877 449.086C470.877 449.086 467.396 444.633 460.3 445.637C453.204 446.641 444.604 456.229 439.475 471.255C434.35 486.278 436.212 495.227 437.098 498.903C437.987 502.578 440.052 507.512 447.287 508.56C454.526 509.611 459.88 504.46 462.661 497.767C462.661 497.767 462.795 503.377 467.757 504.976C472.72 506.575 479.643 501.82 482.134 499.56C484.625 497.304 483.499 485.541 483.499 485.541Z" fill="white"/>
<path fill-rule="evenodd" clip-rule="evenodd" d="M511.031 461.608C510.661 466.492 509.407 471.211 507.717 475.807C506.283 479.713 504.715 483.783 501.673 486.766C499.012 489.38 493.378 491.108 490.293 487.854C490.293 487.854 491.754 480.217 493.923 472.497C495.97 465.203 498.48 456.599 503.767 452.958C510.323 448.446 511.369 457.146 511.031 461.608ZM519.143 442.481C515.891 438.24 509.145 438.831 505.519 440.713C501.896 442.598 497.991 447.834 497.319 449.394L498.018 444.759C498.018 444.759 499.018 443.185 494.894 442.243C490.769 441.303 488.627 441.037 487.698 444.23C486.769 447.426 471.209 525.268 471.209 525.268C471.209 525.268 470.149 529.858 471.209 532.315C472.269 534.775 475.892 536.212 479.393 532.315C482.897 528.418 484.22 512.585 485.434 504.843C486.645 497.104 487.061 495.268 487.061 495.268C487.061 495.268 490.041 499.496 496.948 500.544C504.99 501.764 510.739 496.13 514.992 488.126C519.366 479.883 522.194 468.145 522.677 461.315C523.139 454.723 522.391 446.718 519.143 442.481Z" fill="white"/>
<path fill-rule="evenodd" clip-rule="evenodd" d="M545.536 447.843C546.344 446.998 547.268 446.209 548.39 445.922C550.003 445.504 551.376 446.312 551.675 447.962C552.132 450.503 550.821 453.466 549.378 455.446C548.006 457.327 546.201 458.836 544.28 460.099C543.401 460.679 542.496 461.147 541.526 461.555C538.861 462.681 538.089 462.407 538.044 462.656C538.599 459.566 541.694 451.872 545.536 447.843ZM556.682 475.53C555.005 474.965 553.272 477.7 552.294 478.917C551.238 480.233 549.891 481.268 548.622 482.369C545.814 484.808 539.48 489.111 535.863 485.615C534.339 484.143 534.146 480.65 534.458 478.408C534.726 476.462 535.952 473.157 536.077 473.153C539.157 473.085 542.346 471.781 544.036 471.042C549.058 468.844 553.471 465.451 556.52 460.77C560.725 454.308 565.458 442.498 557.694 436.875C556.538 436.039 555.184 435.509 553.788 435.266C548.9 434.411 544.713 435.203 540.91 438.497C535.808 442.919 534.098 445.23 529.841 453.307C525.007 462.472 522.296 473.69 522.879 484.1C523.022 486.635 523.358 489.186 524.211 491.575C525.062 493.964 526.468 496.19 528.459 497.709C531.582 500.089 535.818 500.5 539.516 499.555C544.164 498.367 549.43 494.962 550.903 493.777C552.373 492.588 558.801 486.648 559.695 484.761C560.585 482.874 559.341 479.759 559.341 479.759C558.905 478.642 558.057 475.994 556.682 475.53Z" fill="white"/>
<path d="M699.527 268.592C711.673 259.831 728.621 262.575 737.382 274.721L742.684 282.116L747.845 289.405L752.867 296.59L757.748 303.67L762.488 310.645L767.089 317.517C768.599 319.79 770.086 322.046 771.549 324.285L775.87 330.95C776.578 332.052 777.28 333.15 777.977 334.244L782.087 340.755C782.76 341.832 783.428 342.904 784.089 343.972L787.989 350.33C789.903 353.483 791.765 356.599 793.575 359.676L797.124 365.781C819.156 404.122 832.75 436.403 837.904 463.046C848.794 519.337 821.542 556.604 765.08 561.742C671.289 570.277 601.806 517.879 560.427 411.126C555.015 397.162 561.947 381.455 575.91 376.042C589.874 370.629 605.581 377.561 610.994 391.525C644.252 477.327 692.711 513.871 760.166 507.733L761.489 507.605L764.018 507.319C780.374 505.257 786.591 500.111 786.3 486.552L786.208 484.455L786.021 482.227L785.742 479.865C785.688 479.46 785.63 479.049 785.569 478.633L785.157 476.062C785.005 475.181 784.839 474.277 784.659 473.347C783.085 465.208 780.297 456.009 776.296 445.775L774.63 441.626C774.054 440.224 773.456 438.805 772.836 437.367L770.912 432.998C770.58 432.26 770.243 431.519 769.901 430.772L767.783 426.239C767.055 424.71 766.306 423.163 765.535 421.598L763.158 416.848C762.751 416.047 762.339 415.242 761.921 414.432L759.35 409.52C758.471 407.864 757.571 406.191 756.649 404.5L753.819 399.372L750.859 394.138C749.851 392.376 748.822 390.596 747.77 388.798L744.552 383.351C743.457 381.517 742.341 379.666 741.204 377.798L737.726 372.14L734.12 366.376L730.383 360.508L726.517 354.535C725.862 353.531 725.202 352.523 724.536 351.51L720.476 345.381L716.287 339.149L711.968 332.814L707.519 326.375L702.941 319.835L698.234 313.192L693.397 306.447C684.637 294.301 687.381 277.353 699.527 268.592Z" fill="#DE4A65"/>
<path fill-rule="evenodd" clip-rule="evenodd" d="M697.249 311.854C710.167 329.942 727.882 356.155 737.562 371.749C766.517 418.39 787.882 464.178 784.707 497.923C786.819 496.172 788.618 493.615 789.908 490.765C804.412 458.723 759.34 377.037 730.18 334.386C701.022 291.731 747.401 288.751 747.401 288.751C744.487 284.415 737.095 274.27 736.627 273.65C729.343 263.061 711.678 260.633 700.769 267.077C689.543 273.707 683.186 290.254 690.398 301.499C691.837 304.388 694.581 308.118 697.249 311.854Z" fill="#BE3C54"/>
<path fill-rule="evenodd" clip-rule="evenodd" d="M534.95 395.483C531.993 377.498 529.709 347.807 553.946 327.205C578.187 306.603 598.721 351.285 603.814 367.129C608.91 382.976 620.999 421.982 620.34 430.013C619.628 438.761 586.735 453.54 581.641 449.002C581.641 449.002 539.222 421.454 534.95 395.483Z" fill="#DE4A65"/>
<path fill-rule="evenodd" clip-rule="evenodd" d="M221.371 167.037C229.461 108.143 186.684 53.3151 125.828 44.5694C110.445 42.3568 95.3776 43.3097 81.3213 46.9073C39.7683 57.5466 7.0281 91.3664 0.983096 135.369C-7.11113 194.263 35.6659 249.091 96.5266 257.837L184.359 270.459L188.876 271.109C193.002 271.698 196.101 267.346 194.281 263.514L183.502 240.822C182.175 238.024 182.894 234.677 185.231 232.69C204.373 216.41 217.723 193.573 221.371 167.037Z" fill="#F4C12A"/>
<path fill-rule="evenodd" clip-rule="evenodd" d="M92.1953 257.485C93.0403 257.622 93.8734 257.783 94.7264 257.903L183.816 270.463L188.397 271.11C192.578 271.696 195.726 267.361 193.88 263.552L182.943 240.972C181.597 238.188 182.33 234.857 184.701 232.881C204.113 216.681 217.657 193.956 221.358 167.551C225.883 135.248 214.706 104.191 193.443 81.3496C203.48 121.532 218.674 231.92 92.1953 257.485Z" fill="#DBAD25"/>
<path fill-rule="evenodd" clip-rule="evenodd" d="M124.633 97.6996C124.598 90.8961 118.581 92.3689 111.141 92.3452C103.686 92.3215 97.635 90.8448 97.6174 97.6877C97.6142 98.1576 97.6488 98.6117 97.7042 99.0776L102.623 162.165C102.609 167.48 106.375 171.799 111.023 171.815C115.686 171.831 119.475 167.535 119.486 162.22L124.733 99.0224C124.733 98.5564 124.699 98.1142 124.633 97.6996ZM110.926 211.507C103.631 211.487 97.7354 204.723 97.7527 196.403C97.777 188.091 103.707 181.367 110.999 181.39C118.304 181.418 124.193 188.174 124.172 196.49C124.152 204.806 118.228 211.534 110.926 211.507Z" fill="#2C2044"/>
<mask id="mask2_11527_21892" style="mask-type:alpha" maskUnits="userSpaceOnUse" x="439" y="211" width="71" height="50">
<path d="M474.533 260.311C494.002 260.311 509.785 249.385 509.785 235.907C509.785 222.428 494.002 211.502 474.533 211.502C455.065 211.502 439.282 222.428 439.282 235.907C439.282 249.385 455.065 260.311 474.533 260.311Z" fill="white"/>
</mask>
<g mask="url(#mask2_11527_21892)">
<path d="M474.533 260.312C494.002 260.312 509.785 249.385 509.785 235.907C509.785 222.429 494.002 211.502 474.533 211.502C455.065 211.502 439.282 222.429 439.282 235.907C439.282 249.385 455.065 260.312 474.533 260.312Z" fill="#3F0D4A"/>
<path d="M474.533 276.585C489.176 276.585 501.047 266.873 501.047 254.892C501.047 242.912 489.176 233.199 474.533 233.199C459.89 233.199 448.02 242.912 448.02 254.892C448.02 266.873 459.89 276.585 474.533 276.585Z" fill="#DE4A65"/>
</g>
<path d="M559.25 162.879C559.384 171.95 554.229 179.428 547.628 179.599C541.027 179.769 535.511 172.446 535.359 163.254C535.207 154.061 540.513 146.562 547.101 146.516C553.72 146.466 559.116 153.807 559.25 162.879Z" fill="#DE4A65"/>
<path d="M418.428 171.783C418.621 181.462 413.481 189.461 406.884 189.662C400.284 189.833 394.731 182.053 394.551 172.248C394.37 162.444 399.631 154.427 406.249 154.377C412.868 154.327 418.3 162.125 418.462 171.809L418.428 171.783Z" fill="#DE4A65"/>
</g>
<defs>
<clipPath id="clip0_11527_21892">
<rect width="999.107" height="1300" fill="white"/>
</clipPath>
</defs>
</svg>
