<svg width="1342" height="1300" viewBox="0 0 1342 1300" fill="none" xmlns="http://www.w3.org/2000/svg">
<g clip-path="url(#clip0_11025_918)">
<path d="M1271.16 307.456C1271.07 310.785 1270.43 314.787 1268.94 319.682C1263.29 338.15 1218.52 446.669 1200.35 451.773C1182.18 456.876 917.511 293.113 917.511 293.113L943.356 362.701L955.06 391.694C955.06 391.694 1150.66 517.751 1224.75 520.761C1258.16 522.12 1315.78 385.281 1330.5 327.943L1271.16 307.444V307.456Z" fill="#DE4A65"/>
<path d="M404.998 909.53C404.998 909.53 356.787 901.024 352.943 941.326C349.099 981.627 363.349 1066.21 369.997 1082.4C378.665 1103.52 418 1068.36 424.574 1023.03C431.124 977.674 425.125 939.661 404.998 909.518" fill="#973043"/>
<path d="M868.382 796.875L768.482 1014.68C768.482 1014.68 761.345 1045.15 723.392 1039.38C678.34 1032.54 381.04 946.601 381.04 946.601L403.272 909.555L726.441 964.799L802.676 777.342L868.394 796.862L868.382 796.875Z" fill="#973043"/>
<path d="M563.149 767.269C558.117 687.487 558.117 412.34 550.551 261.011C542.997 109.694 508.669 -6.15609 578.415 0.685243H578.44C665.656 9.42355 865.333 27.6712 918.393 38.747C918.393 38.747 956.174 46.3961 958.708 90.4303C960.067 114.051 976.815 263.544 980.084 410.492C982.899 537.369 972.469 662.789 971.293 698.489C968.784 775.53 963.74 833.309 885.644 833.309C826.867 833.309 703.853 844.225 624.031 841.386C627.582 841.521 631.181 841.618 634.878 841.692C614.751 840.211 567.14 830.041 563.161 767.257" fill="#DE4A65"/>
<path d="M588.968 685.553C584.671 618.045 585.308 427.626 583.631 299.452C581.892 166.322 549.645 79.1956 607.479 79.1956C682.404 79.1956 851.744 97.1005 897.103 106.475C897.103 106.475 929.411 112.949 931.566 150.203C932.802 171.572 946.012 288.976 948.865 420.834C950.554 499.062 949.563 579.714 948.289 657.845C947.567 701.965 946.735 744.273 889.5 744.273C839.244 744.273 709.252 750.662 641.024 748.275C644.048 748.373 647.145 748.459 650.292 748.532C633.078 747.284 592.372 738.68 588.968 685.565" fill="#742384"/>
<path d="M482.311 117.025C480.572 89.6226 474.169 60.5072 486.436 34.6594C501.421 3.05959 549.694 -2.20297 578.415 0.685318C508.669 -6.15601 542.997 109.682 550.551 261.011C558.117 412.352 558.117 687.487 563.149 767.294C565.977 811.989 595.126 837.09 633.886 841.667C597.171 837.323 553.587 842.267 525.515 810.043C501.997 783.045 500.172 744.604 500.172 709.504C500.172 643.477 499.022 379.223 482.323 117.025" fill="#973043"/>
<path d="M495.471 407.91C494.394 371.304 493.072 332.912 491.444 293.431L529.885 312.706C529.885 312.706 521.671 402.06 495.459 407.91" fill="#6B222F"/>
<path d="M837.751 398.964C832.486 375.368 808.736 360.584 784.703 365.944C760.671 371.305 745.453 394.766 750.718 418.362C752.456 426.158 756.215 432.987 761.332 438.457C763.964 441.26 758.1 456.791 761.369 458.822C764.05 460.487 775.766 448.799 778.766 449.864C786.491 452.629 795.11 453.303 803.765 451.381C827.797 446.021 843.015 422.559 837.763 398.964M784.789 430.38C774.652 430.38 771.861 423.722 771.151 420.405C770.845 419.096 770.832 418.166 770.832 417.725C770.832 416.146 772.106 414.874 773.673 414.874C775.13 414.874 776.329 415.987 776.476 417.395C776.476 417.407 776.489 417.419 776.501 417.432C776.501 417.517 776.525 417.676 776.537 417.872C776.562 418.031 776.586 418.19 776.586 418.374C776.586 418.472 776.586 418.594 776.586 418.717C776.611 418.949 776.648 419.206 776.684 419.463C776.795 420.014 776.978 420.626 777.284 421.238C777.321 421.311 777.345 421.36 777.382 421.421C778.349 423.208 780.32 424.958 784.14 425.166C789.882 425.338 791.571 423.404 791.596 421.03C791.376 418.264 791.216 416.281 784.581 413.576C776.819 410.407 771.873 408.497 771.873 401.864C771.873 395.231 778.031 392.502 783.675 392.502C785.083 392.502 786.319 392.661 787.421 392.93C789.625 393.371 792.049 394.264 793.885 396.051C794.351 396.455 794.84 397.054 795.269 397.776C795.305 397.85 795.354 397.923 795.391 397.997C795.501 398.193 795.612 398.413 795.722 398.621C795.758 398.694 795.795 398.756 795.82 398.829C796.383 400.065 796.775 401.521 796.775 403.015C796.775 403.272 796.811 403.712 796.713 404.214C796.713 404.251 796.701 404.3 796.689 404.336C796.664 404.459 796.628 404.569 796.579 404.691C796.554 404.74 796.542 404.789 796.53 404.838C796.517 404.875 796.493 404.924 796.468 404.96C796.003 405.891 795.048 406.539 793.934 406.539C792.955 406.539 792.11 406.037 791.596 405.291C791.559 405.23 791.51 405.169 791.473 405.095C791.4 404.96 791.339 404.814 791.278 404.667C791.278 404.642 791.265 404.63 791.253 404.606C791.229 404.532 791.204 404.459 791.18 404.373C791.057 403.92 790.996 403.455 790.996 403.039C790.996 402.953 790.996 402.868 790.984 402.782C790.984 402.66 790.972 402.525 790.959 402.403C790.874 401.705 790.678 401.142 790.421 400.701C790.396 400.653 790.372 400.604 790.347 400.555C790.298 400.469 790.249 400.396 790.2 400.322C788.78 398.29 785.756 397.25 783.54 397.25C780.553 397.25 777.345 398.878 777.345 401.889C777.345 404.899 780.223 406.698 785.071 408.289C794.571 411.765 796.542 414.58 797.399 418.007C798.342 421.764 796.713 430.343 784.777 430.343M822.313 396.247L804.757 428.422C804.034 429.731 802.394 430.221 801.072 429.511C799.762 428.801 799.272 427.149 799.982 425.827L817.538 393.652C818.248 392.343 819.901 391.853 821.223 392.575C822.533 393.285 823.023 394.937 822.3 396.259" fill="#10CBB4"/>
<path d="M865.076 539.168C863.901 537.283 862.371 536.109 854.952 536.341C847.533 536.574 820.917 539.988 813.902 540.845C806.875 541.689 762.177 548.115 754.819 549.669C751.428 550.391 745.392 551.345 738.708 552.692C738.708 552.667 738.72 552.655 738.72 552.631C738.72 552.631 756.68 488.623 757.145 486.824C757.61 485.025 759.177 479.836 757.145 479.138C755.101 478.428 752.04 478.747 749.138 480.472C746.237 482.198 744.266 484.707 743.421 487.301C742.576 489.896 739.944 498.194 738.769 501.571C737.594 504.949 733.627 516.196 730.762 520.566C727.616 525.351 723.625 528.802 720.638 526.685C718.299 525.033 719.462 519.782 720.16 516.723C720.87 513.663 722.903 507.385 723.845 504.325C724.788 501.265 726.208 497.263 726.441 494.118C726.673 490.985 724.164 488.146 721.85 487.693C719.548 487.228 717.1 486.812 716.145 488.623C715.202 490.422 715.826 493.176 715.52 495.758C715.239 498.096 714.112 500.335 713.292 502.526C712.386 504.974 711.492 507.446 710.672 509.93C709.46 513.614 708.371 517.347 707.538 521.141C706.718 524.837 705.946 528.753 706.289 532.535C706.559 535.472 707.697 538.458 709.95 540.355C711.811 541.922 714.333 542.632 716.757 542.473C720.907 542.191 724.727 539.425 727.591 536.586C728.901 535.276 731.056 533.306 731.656 531.47C729.061 539.376 726.367 547.27 723.894 555.213C723.796 555.543 723.686 555.886 723.453 556.155C723.184 556.461 722.792 556.62 722.413 556.779C722.119 556.89 721.837 557.012 721.556 557.134C719.524 557.832 717.601 558.591 715.851 559.411C711.456 561.479 707.771 563.804 704.869 565.922C700.78 568.687 696.96 571.857 693.581 575.468C689.223 580.118 685.636 585.54 683.212 591.439C680.972 596.922 679.098 603.359 680.641 609.197C682.135 614.839 686.86 619.086 692.712 619.722C696.814 620.163 700.988 618.939 704.551 616.846C708.113 614.753 711.113 611.828 713.819 608.707C721.776 599.516 726.894 588.538 730.872 577.169C731.901 574.207 732.893 571.221 733.872 568.235C745.857 564.93 774.799 559.521 782.267 558.236C789.796 556.938 826.304 552.117 835.008 550.942C843.725 549.767 862.211 548.592 864.452 546.352C866.692 544.113 866.215 541.065 865.039 539.168M718.067 575.211C717.589 576.471 717.1 577.72 716.573 578.968C715.459 581.611 714.235 584.194 712.937 586.752C710.28 592.002 707.281 597.142 703.388 601.585C701.466 603.775 695.724 609.809 692.712 606.15C690.313 603.237 693.361 594.841 699.96 586.605C708.224 576.263 719.107 572.273 719.107 572.273C718.789 572.396 718.214 574.831 718.067 575.211Z" fill="white"/>
<path d="M799.395 515.511C799.395 515.511 797.95 519.207 793.236 520.627C788.523 522.034 793.396 502.893 793.396 502.893C793.396 502.893 797.46 484.168 798.097 481.366C798.733 478.563 798.476 475.871 795.391 474.94C792.306 474.01 789.258 473.839 788.339 476.776L787.421 479.713C787.421 479.713 784.116 475.332 777.382 476.323C770.649 477.302 762.483 486.726 757.61 501.474C752.75 516.233 754.513 525.02 755.358 528.631C756.203 532.241 758.161 537.088 765.029 538.116C771.898 539.144 776.978 534.089 779.623 527.517C779.623 527.517 779.745 533.024 784.459 534.591C789.172 536.157 795.746 531.495 798.109 529.279C800.472 527.064 799.407 515.511 799.407 515.511M785.401 491.597C784.581 495.783 782.647 502.673 780.223 510.041C777.627 517.898 774.738 524.311 770.722 523.54C766.241 522.671 765.666 515.854 765.948 512.035C766.229 508.217 767.319 503.701 769.229 499.332C772.828 491.108 777.284 488.574 780.565 487.301C783.21 486.273 786.27 487.216 785.401 491.609" fill="white"/>
<path d="M836.392 473.166C833.331 468.931 826.965 469.519 823.562 471.403C820.146 473.288 816.473 478.526 815.836 480.08L816.498 475.442C816.498 475.442 817.44 473.876 813.559 472.933C809.678 471.991 807.658 471.722 806.777 474.916C805.908 478.11 791.241 555.947 791.241 555.947C791.241 555.947 790.237 560.536 791.241 562.996C792.245 565.456 795.648 566.888 798.954 562.996C802.259 559.105 803.508 543.268 804.647 535.533C805.785 527.786 806.177 525.95 806.177 525.95C806.177 525.95 808.981 530.185 815.481 531.225C823.06 532.449 828.483 526.807 832.486 518.815C836.612 510.567 839.269 498.83 839.722 492.013C840.163 485.416 839.452 477.412 836.392 473.178M828.752 492.307C828.397 497.19 827.222 501.914 825.631 506.503C824.272 510.408 822.802 514.483 819.938 517.457C817.428 520.064 812.127 521.789 809.213 518.546C809.213 518.546 810.597 510.909 812.629 503.199C814.563 495.905 816.926 487.301 821.897 483.666C828.067 479.15 829.058 487.852 828.74 492.319" fill="white"/>
<path d="M875.005 504.57C873.303 504.007 871.54 506.724 870.549 507.923C869.471 509.22 868.112 510.248 866.827 511.338C863.974 513.749 857.559 518.008 853.886 514.556C852.344 513.1 852.148 509.636 852.466 507.409C852.736 505.488 853.984 502.208 854.107 502.208C857.229 502.147 860.461 500.849 862.175 500.115C867.268 497.936 871.736 494.571 874.834 489.932C879.094 483.532 883.893 471.832 876.033 466.251C874.858 465.419 873.487 464.892 872.079 464.66C867.121 463.815 862.885 464.599 859.028 467.866C853.85 472.248 852.111 474.536 847.802 482.54C842.905 491.621 840.15 502.734 840.75 513.051C840.897 515.56 841.228 518.093 842.097 520.455C842.966 522.817 844.386 525.033 846.406 526.538C849.577 528.9 853.862 529.304 857.62 528.374C862.334 527.199 867.672 523.821 869.165 522.646C870.659 521.471 877.172 515.584 878.078 513.712C878.984 511.839 877.723 508.755 877.723 508.755C877.282 507.654 876.425 505.023 875.029 504.57M863.729 477.131C864.55 476.299 865.48 475.515 866.619 475.222C868.247 474.806 869.643 475.613 869.949 477.241C870.414 479.762 869.08 482.699 867.623 484.67C866.227 486.53 864.403 488.023 862.456 489.272C861.562 489.847 860.644 490.312 859.665 490.716C856.959 491.842 856.176 491.56 856.139 491.805C856.702 488.745 859.836 481.121 863.729 477.131Z" fill="white"/>
<path d="M84.5354 501.278C146.875 428.226 368.27 288.548 500.087 344.429C515.341 350.891 533.093 337.11 536.974 321.616C540.879 306.171 527.302 291.375 507.432 286.895C314.513 243.424 110.318 383.09 52.729 453.29" fill="#DE4A65"/>
<path d="M792 1300H128.425C128.425 1300 114.542 1253.33 225.57 1264.69C336.587 1276.05 270.991 1225.6 269.717 1210.46C268.456 1195.32 252.051 1120.93 385.777 1178.94C519.504 1236.96 537.17 1252.09 562.402 1242C587.634 1231.92 527.082 1219.3 556.097 1201.65C585.112 1183.99 667.113 1264.7 707.489 1274.8C735.745 1281.86 792.012 1300.02 792.012 1300.02" fill="#F6F4FB"/>
<path d="M770.759 784.024C770.759 794.121 778.962 802.308 789.062 802.308C799.15 802.308 807.34 794.121 807.34 784.024C807.34 773.94 799.15 765.74 789.062 765.74C778.962 765.74 770.759 773.927 770.759 784.024Z" fill="#973043"/>
<path d="M931.468 1141.3C931.468 1141.3 915.92 1198.21 919.311 1207.81C925.751 1226.03 1030.25 1291.45 1048.54 1297.92C1072.41 1306.35 1072.41 1247.88 1039.78 1208.97C1007.12 1170.05 971.257 1146.93 931.48 1141.3" fill="#DE4A65"/>
<path d="M923.816 1193.02C926.424 1196.63 946.502 1209.37 946.502 1209.37L1007.25 897.475C1007.25 897.475 1025.66 840.786 955.635 819.871C885.607 798.943 649.716 751.164 649.716 751.164L661.689 837.629L788.131 847.713L943.821 887.635L923.816 1193.04V1193.02Z" fill="#DE4A65"/>
<path d="M854.021 180.763C852.797 190.04 846.406 196.893 839.648 196.073C832.903 195.253 828.348 186.968 829.585 177.556C830.821 168.169 837.347 161.316 844.08 162.258C850.826 163.213 855.233 171.486 854.021 180.763Z" fill="#DE4A65"/>
<path d="M709.044 168.72C707.771 178.621 701.331 186.013 694.573 185.205C687.815 184.398 683.31 175.623 684.595 165.587C685.881 155.564 692.455 148.184 699.201 149.114C705.947 150.044 710.317 158.819 709.044 168.72Z" fill="#DE4A65"/>
<path d="M64.5677 439.754C64.5677 439.754 -24.6321 503.603 6.66004 568.712C31.28 619.942 48.6522 566.252 85.7352 555.005C139.235 538.764 128.646 515.829 81.0462 428.752L46.7424 458.394" fill="#DE4A65"/>
<path d="M1338.16 300.015C1338.16 300.015 1358.22 237.941 1306.79 199.916C1248.7 156.959 1241.66 210.368 1237.12 248.846C1232.58 287.311 1231.76 314.297 1319.77 360.18C1333.38 322.938 1334.87 313.869 1334.87 313.869L1338.16 300.015Z" fill="#DE4A65"/>
<path d="M1313.05 236.644C1313.05 236.644 1302.3 254.622 1269.36 261.084C1236.43 267.546 1237.19 235.53 1237.19 235.53C1237.19 235.53 1238.02 286.957 1274.49 282.465C1310.97 277.973 1313.03 236.644 1313.03 236.644H1313.05Z" fill="#973043"/>
<path d="M806.788 69.4419L709.043 59.4675C704.085 59.7979 699.763 56.0162 699.433 51.0596C699.102 46.103 702.885 41.7828 707.843 41.4524L805.589 51.4268C810.547 51.0963 814.869 54.878 815.199 59.8347C815.53 64.7913 811.747 69.1115 806.788 69.4419Z" fill="#973043"/>
<path d="M804.768 220.612C804.768 220.612 803.507 211.139 790.249 210.515C776.99 209.879 777.467 215.092 767.367 215.092C757.267 215.092 758.687 211.776 745.428 211.776C732.17 211.776 728.387 225.03 728.387 225.03C726.709 236.228 731.019 244.416 741.707 246.129C742.38 235.445 753.668 226.927 767.526 226.927C780.956 226.927 791.999 234.907 793.285 245.126C812.799 242.25 804.781 220.612 804.781 220.612H804.768Z" fill="#3F0D4A"/>
<path d="M767.514 226.927C753.643 226.927 742.368 235.433 741.695 246.129C743.053 246.35 744.486 246.496 746.053 246.496C759.948 246.496 757.745 241.699 768.151 241.295C780.149 240.818 777.786 247.133 792.771 245.236C792.954 245.211 793.089 245.162 793.273 245.138C791.987 234.919 780.944 226.939 767.514 226.939V226.927Z" fill="#DE4A65"/>
</g>
<defs>
<clipPath id="clip0_11025_918">
<rect width="1342" height="1300" fill="white"/>
</clipPath>
</defs>
</svg>
