<svg width="928" height="1301" viewBox="0 0 928 1301" fill="none" xmlns="http://www.w3.org/2000/svg">
<g clip-path="url(#clip0_11025_934)">
<path d="M633.099 1260.39C639.678 1260.39 645.966 1258.31 651.289 1254.38C664.806 1244.39 667.689 1225.22 657.716 1211.66C654.102 1206.47 642.235 1160.49 638.341 1145.38C632.448 1122.53 626.358 1098.91 619.698 1077.59C595.127 998.842 532.992 820.664 531.853 818.026C526.995 806.833 515.976 799.604 503.784 799.604C499.576 799.604 495.485 800.464 491.615 802.149C476.168 808.844 469.055 826.871 475.75 842.341C476.017 842.957 537.513 1019.45 561.328 1095.81C567.547 1115.74 573.439 1138.58 579.134 1160.67C591.548 1208.78 598.498 1234.53 608.633 1248.13C614.445 1255.93 623.359 1260.4 633.099 1260.4" fill="#DE4A65"/>
<path d="M656.078 1300.99C658.6 1300.99 661.238 1300.92 664.144 1300.78C674.383 1300.28 689.865 1299.52 695.758 1287.56C701.93 1275.02 693.143 1262.38 679.846 1243.23C677.742 1240.21 675.36 1236.91 672.838 1233.41C663.272 1220.15 651.382 1203.68 642.037 1185.21C628.311 1158.06 614.898 1144.3 602.159 1144.3C597.382 1144.3 585.818 1146.28 581.68 1164.52L581.145 1166.9L581.482 1169.3C581.552 1169.78 588.189 1217.53 597.801 1256.91C607.332 1295.99 633.959 1301 656.089 1301" fill="#DE4A65"/>
<path d="M173.533 1217.28C188.597 1217.28 201.277 1206.48 203.683 1191.61L203.706 1191.48C205.066 1183.16 217.293 1109.12 227.266 1072.66C236.692 1038.17 338.252 789.155 348.875 763.387C349.224 762.527 349.421 762.062 349.433 762.016C352.432 754.449 352.304 746.151 349.049 738.654C345.807 731.157 339.832 725.381 332.243 722.37C328.64 720.952 324.862 720.22 321.015 720.22C308.393 720.22 297.235 727.798 292.586 739.526C292.493 739.758 291.145 743.047 291.145 743.047C267.132 801.51 177.38 1023.31 168.303 1056.53C156.785 1098.64 143.477 1180.99 143.337 1181.82C140.641 1198.45 151.985 1214.18 168.629 1216.87C170.244 1217.14 171.895 1217.27 173.533 1217.27" fill="#DE4A65"/>
<path d="M149.928 1228.23C180.252 1228.23 187.237 1225.08 191.398 1222.14C195.501 1219.23 201.126 1215.26 209.169 1160.72L210.564 1151.28L202.068 1146.9C197.302 1144.45 192.212 1143.21 186.935 1143.21C176.8 1143.21 167.804 1147.81 159.854 1151.88C157.796 1152.93 155.681 1154.01 153.647 1154.97C151.729 1155.88 149.777 1156.82 147.778 1157.78L147.615 1157.87C139.397 1161.85 130.901 1165.97 121.487 1168.44C109.248 1171.66 97.4392 1176.5 88.2223 1182.04C75.6696 1189.6 69.5328 1197.45 69.4514 1206.03C69.3933 1212.46 73.1591 1220.4 83.8986 1223.43C93.4525 1226.13 127.228 1228.23 149.904 1228.23" fill="#DE4A65"/>
<path d="M531.841 818.026L561.724 900.269L492.568 883.451L470.136 823.64L531.841 818.026Z" fill="#973043"/>
<path d="M328.105 816.166L264.551 810.564L258.949 825.511L313.146 847.943L328.105 816.166Z" fill="#973043"/>
<path d="M201.219 341.642C201.219 341.642 55.3877 325.428 51.494 399.721C44.0206 542.635 196.233 624.076 196.233 624.076L197.895 733.877C197.895 733.877 162.178 737.503 170.488 671.265C45.8918 605.921 -8.31692 479.709 1.02782 391.922C9.95413 308.099 124.381 283.528 191.247 285.388C197.895 321.686 201.219 341.642 201.219 341.642Z" fill="#DE4A65"/>
<path d="M588.433 753.171C593.373 674.856 593.373 404.766 600.788 256.215C608.203 107.675 641.886 -6.04241 573.451 0.675571H573.428C487.849 9.2532 291.9 27.1639 239.83 38.0313C239.83 38.0313 202.753 45.5396 200.278 88.7648C198.953 111.952 182.506 258.702 179.299 402.941C176.532 527.479 186.772 650.6 187.923 685.642C190.387 761.26 195.338 817.98 271.967 817.98C329.651 817.98 450.354 828.684 528.68 825.906C525.205 826.034 521.66 826.139 518.045 826.209C537.804 824.756 584.516 814.772 588.421 753.148" fill="#DE4A65"/>
<path d="M561.817 670.091C566.036 603.829 565.408 416.911 567.047 291.083C568.744 160.396 600.393 74.8871 543.65 74.8871C470.136 74.8871 303.953 92.4608 259.438 101.666C259.438 101.666 227.742 108.024 225.615 144.589C224.407 165.557 211.436 280.808 208.646 410.24C206.996 487.02 207.96 566.195 209.216 642.894C209.925 686.2 210.75 727.728 266.911 727.728C316.227 727.728 443.787 734.005 510.746 731.657C507.782 731.75 504.749 731.843 501.645 731.913C518.545 730.681 558.481 722.242 561.817 670.103" fill="#742384"/>
<path d="M667.747 114.87C669.455 87.9628 675.732 59.3939 663.702 34.0214C648.999 3.01172 601.625 -2.16043 573.451 0.675536C641.886 -6.04245 608.203 107.663 600.788 256.215C593.361 404.766 593.361 674.845 588.433 753.182C585.655 797.058 557.051 821.687 519.022 826.185C555.052 821.92 597.812 826.778 625.359 795.141C648.43 768.641 650.231 730.902 650.231 696.452C650.231 631.643 651.359 372.245 667.747 114.87Z" fill="#973043"/>
<path d="M654.845 383.589C655.903 347.663 657.205 309.97 658.797 271.22L610.307 279.786C610.307 279.786 629.124 377.859 654.845 383.6" fill="#6B222F"/>
<path d="M431.955 391.632C426.794 368.479 403.479 353.962 379.896 359.227C356.314 364.493 341.378 387.517 346.539 410.682C348.247 418.329 351.932 425.036 356.953 430.405C359.533 433.16 353.78 448.398 356.988 450.397C359.614 452.035 371.121 440.552 374.062 441.61C381.64 444.318 390.101 444.992 398.597 443.098C422.18 437.832 437.115 414.796 431.955 391.643M379.978 422.49C370.028 422.49 367.285 415.958 366.6 412.692C366.298 411.402 366.286 410.496 366.286 410.066C366.286 408.52 367.541 407.276 369.075 407.276C370.505 407.276 371.679 408.369 371.83 409.752C371.83 409.763 371.842 409.775 371.853 409.787C371.853 409.868 371.876 410.019 371.888 410.217C371.911 410.368 371.935 410.53 371.935 410.705C371.935 410.809 371.935 410.926 371.935 411.03C371.958 411.263 371.993 411.507 372.039 411.762C372.144 412.309 372.33 412.901 372.632 413.506C372.667 413.576 372.69 413.622 372.725 413.692C373.666 415.447 375.607 417.167 379.35 417.365C384.987 417.527 386.649 415.633 386.661 413.297C386.451 410.589 386.289 408.624 379.78 405.974C372.167 402.859 367.309 400.988 367.309 394.479C367.309 387.971 373.353 385.286 378.885 385.286C380.268 385.286 381.489 385.448 382.558 385.716C384.72 386.146 387.102 387.029 388.892 388.784C389.346 389.179 389.822 389.76 390.252 390.481C390.287 390.551 390.333 390.632 390.368 390.702C390.485 390.899 390.589 391.109 390.694 391.318C390.729 391.388 390.764 391.457 390.787 391.527C391.345 392.736 391.717 394.166 391.717 395.63C391.717 395.886 391.751 396.316 391.658 396.816C391.658 396.85 391.647 396.897 391.635 396.943C391.612 397.06 391.577 397.164 391.531 397.28C391.507 397.327 391.496 397.373 391.473 397.42C391.461 397.466 391.426 397.501 391.414 397.536C390.961 398.454 390.02 399.082 388.927 399.082C387.974 399.082 387.137 398.594 386.637 397.85C386.603 397.792 386.556 397.722 386.521 397.652C386.451 397.513 386.382 397.373 386.335 397.234C386.335 397.211 386.324 397.199 386.312 397.176C386.289 397.106 386.265 397.036 386.242 396.955C386.114 396.513 386.068 396.048 386.068 395.642C386.068 395.549 386.068 395.479 386.056 395.386C386.056 395.258 386.045 395.142 386.033 395.014C385.952 394.328 385.754 393.782 385.498 393.34C385.475 393.294 385.452 393.247 385.429 393.201C385.382 393.119 385.324 393.05 385.278 392.968C383.883 390.969 380.919 389.958 378.746 389.958C375.817 389.958 372.667 391.55 372.667 394.503C372.667 397.455 375.491 399.221 380.256 400.79C389.59 404.208 391.507 406.962 392.344 410.333C393.262 414.017 391.67 422.444 379.954 422.444M416.787 388.982L399.562 420.573C398.853 421.863 397.237 422.339 395.947 421.642C394.657 420.944 394.181 419.317 394.878 418.027L412.115 386.436C412.812 385.146 414.439 384.67 415.729 385.379C417.019 386.076 417.496 387.703 416.787 388.993" fill="#10CBB4"/>
<path d="M458.769 529.269C457.618 527.421 456.119 526.259 448.831 526.491C441.555 526.724 415.439 530.071 408.546 530.908C401.654 531.745 357.79 538.044 350.572 539.567C347.236 540.276 341.32 541.206 334.765 542.542C334.765 542.519 334.777 542.496 334.777 542.484C334.777 542.484 352.397 479.663 352.862 477.885C353.315 476.118 354.861 471.027 352.862 470.341C350.851 469.644 347.852 469.958 345.005 471.655C342.157 473.352 340.228 475.816 339.402 478.361C338.577 480.918 335.997 489.054 334.846 492.367C333.696 495.679 329.802 506.721 326.989 511.01C323.909 515.705 319.981 519.099 317.052 517.019C314.762 515.391 315.889 510.242 316.587 507.232C317.284 504.222 319.283 498.062 320.213 495.063C321.131 492.053 322.526 488.124 322.759 485.044C322.979 481.964 320.527 479.186 318.261 478.745C315.994 478.291 313.6 477.885 312.67 479.651C311.752 481.418 312.356 484.114 312.054 486.66C311.775 488.961 310.671 491.146 309.869 493.296C308.974 495.702 308.114 498.12 307.3 500.561C306.103 504.187 305.034 507.837 304.22 511.556C303.418 515.182 302.651 519.029 303 522.749C303.267 525.643 304.383 528.56 306.591 530.431C308.416 531.965 310.892 532.674 313.274 532.512C317.342 532.233 321.097 529.525 323.898 526.735C325.188 525.457 327.291 523.516 327.884 521.714C325.339 529.478 322.7 537.219 320.271 545.029C320.178 545.355 320.062 545.692 319.841 545.948C319.586 546.25 319.19 546.401 318.818 546.552C318.539 546.668 318.261 546.785 317.982 546.901C315.994 547.587 314.1 548.33 312.391 549.132C308.079 551.155 304.464 553.444 301.617 555.525C297.595 558.245 293.864 561.348 290.54 564.893C286.263 569.461 282.741 574.784 280.37 580.572C278.162 585.953 276.337 592.276 277.848 598.006C279.313 603.539 283.95 607.723 289.692 608.339C293.725 608.769 297.816 607.572 301.314 605.515C304.813 603.457 307.754 600.587 310.415 597.518C318.226 588.499 323.247 577.724 327.14 566.567C328.152 563.649 329.128 560.72 330.081 557.791C341.843 554.549 370.238 549.237 377.572 547.97C384.964 546.703 420.785 541.961 429.328 540.81C437.882 539.648 456.026 538.497 458.222 536.301C460.419 534.104 459.954 531.105 458.792 529.257M314.565 564.626C314.1 565.869 313.611 567.09 313.088 568.31C311.996 570.902 310.787 573.436 309.52 575.946C306.905 581.107 303.976 586.139 300.152 590.51C298.269 592.66 292.632 598.576 289.68 594.996C287.332 592.137 290.319 583.896 296.793 575.818C304.906 565.672 315.576 561.743 315.576 561.743C315.262 561.859 314.692 564.254 314.553 564.626" fill="white"/>
<path d="M394.309 506.035C394.309 506.035 392.891 509.673 388.265 511.056C383.639 512.439 388.416 493.645 388.416 493.645C388.416 493.645 392.403 475.269 393.03 472.515C393.658 469.76 393.402 467.122 390.369 466.204C387.335 465.297 384.348 465.123 383.441 468.005L382.535 470.888C382.535 470.888 379.292 466.587 372.679 467.563C366.077 468.528 358.057 477.78 353.28 492.25C348.503 506.732 350.247 515.368 351.072 518.901C351.897 522.435 353.815 527.2 360.568 528.211C367.309 529.222 372.295 524.26 374.887 517.809C374.887 517.809 375.003 523.213 379.641 524.759C384.255 526.305 390.706 521.726 393.03 519.541C395.343 517.367 394.297 506.023 394.297 506.023M380.559 482.545C379.745 486.648 377.862 493.424 375.48 500.642C372.923 508.36 370.087 514.647 366.158 513.892C361.765 513.044 361.195 506.349 361.474 502.595C361.753 498.84 362.811 494.412 364.694 490.123C368.227 482.057 372.609 479.57 375.817 478.303C378.409 477.292 381.407 478.21 380.57 482.534" fill="white"/>
<path d="M430.607 464.46C427.596 460.299 421.367 460.88 418.008 462.729C414.66 464.577 411.057 469.714 410.43 471.248L411.069 466.692C411.069 466.692 411.987 465.158 408.186 464.228C404.374 463.31 402.387 463.042 401.526 466.18C400.666 469.307 386.289 545.715 386.289 545.715C386.289 545.715 385.301 550.213 386.289 552.631C387.265 555.048 390.613 556.455 393.855 552.631C397.098 548.807 398.319 533.267 399.446 525.666C400.573 518.065 400.957 516.263 400.957 516.263C400.957 516.263 403.7 520.413 410.092 521.447C417.531 522.644 422.843 517.112 426.771 509.266C430.816 501.177 433.431 489.647 433.873 482.952C434.303 476.478 433.605 468.621 430.607 464.46ZM423.11 483.231C422.773 488.02 421.611 492.657 420.053 497.167C418.728 501.002 417.275 505.001 414.463 507.93C411.999 510.498 406.792 512.184 403.944 508.999C403.944 508.999 405.304 501.502 407.303 493.924C409.198 486.764 411.522 478.326 416.404 474.746C422.459 470.307 423.424 478.849 423.122 483.231" fill="white"/>
<path d="M468.509 495.296C466.835 494.749 465.115 497.399 464.139 498.596C463.081 499.875 461.744 500.886 460.489 501.955C457.688 504.326 451.388 508.511 447.797 505.105C446.286 503.676 446.088 500.282 446.402 498.097C446.67 496.202 447.89 492.994 448.006 492.983C451.075 492.913 454.248 491.646 455.921 490.937C460.919 488.798 465.301 485.498 468.334 480.941C472.519 474.653 477.226 463.17 469.508 457.696C468.358 456.882 467.009 456.371 465.626 456.127C460.756 455.301 456.607 456.069 452.818 459.265C447.739 463.565 446.03 465.82 441.8 473.665C436.988 482.58 434.291 493.494 434.872 503.617C435.012 506.081 435.349 508.569 436.197 510.882C437.046 513.206 438.441 515.38 440.428 516.856C443.531 519.169 447.75 519.576 451.423 518.657C456.049 517.495 461.279 514.194 462.755 513.032C464.22 511.881 470.612 506.105 471.496 504.268C472.379 502.432 471.147 499.398 471.147 499.398C470.717 498.317 469.869 495.737 468.497 495.284M457.409 468.354C458.211 467.529 459.129 466.762 460.245 466.483C461.849 466.076 463.209 466.866 463.511 468.47C463.964 470.946 462.662 473.828 461.221 475.758C459.85 477.582 458.06 479.047 456.154 480.279C455.282 480.848 454.375 481.29 453.411 481.697C450.761 482.801 449.994 482.534 449.947 482.766C450.493 479.767 453.573 472.282 457.397 468.354" fill="white"/>
<path d="M384.708 769.605C384.708 779.52 376.665 787.551 366.751 787.551C356.848 787.551 348.817 779.52 348.817 769.605C348.817 759.703 356.848 751.66 366.751 751.66C376.665 751.66 384.708 759.703 384.708 769.605Z" fill="#973043"/>
<path d="M349.34 68.1576L445.263 58.3595C450.121 58.685 454.375 54.9657 454.689 50.1074C455.015 45.249 451.295 40.9951 446.437 40.6813L350.514 50.4793C345.656 50.1538 341.402 53.8731 341.088 58.7315C340.762 63.5898 344.482 67.8437 349.34 68.1576Z" fill="#973043"/>
<path d="M632.111 312.387C632.111 312.387 612.178 307.401 609.679 284.144C607.18 260.887 631.274 257.563 652.044 256.738C672.814 255.912 868.844 234.306 913.697 338.969C958.549 443.632 888.778 509.255 819.831 556.594C750.885 603.946 692.747 634.676 692.747 634.676C692.747 634.676 672.814 729.367 613.003 728.542C583.098 726.88 585.597 657.945 597.22 635.513C597.22 635.513 607.18 610.594 645.396 594.81C683.6 579.026 889.603 491.809 877.143 384.658C864.683 277.507 632.1 312.387 632.1 312.387" fill="#DE4A65"/>
<path fill-rule="evenodd" clip-rule="evenodd" d="M320.62 222.869C314.96 222.869 310.334 218.231 310.334 212.571V198.949C310.334 193.289 315.983 193.661 321.643 193.661C327.303 193.661 330.883 195.578 330.883 201.25V212.571C330.883 218.231 326.269 222.869 320.609 222.869" fill="#DE4A65"/>
<path fill-rule="evenodd" clip-rule="evenodd" d="M453.62 222.869C447.959 222.869 443.334 218.231 443.334 212.571V198.949C443.334 193.289 448.982 193.661 454.643 193.661C460.303 193.661 463.883 195.578 463.883 201.25V212.571C463.883 218.231 459.268 222.869 453.608 222.869" fill="#DE4A65"/>
<path d="M333.312 185.176C333.161 185.176 332.999 185.164 332.847 185.129L294.399 176.854C293.121 176.598 292.284 175.355 292.54 174.076C292.795 172.798 294.039 171.961 295.317 172.216L333.766 180.492C335.044 180.748 335.881 181.991 335.625 183.27C335.404 184.397 334.417 185.176 333.312 185.176Z" fill="#DE4A65"/>
<path d="M438.382 181.573C438.533 181.573 438.696 181.561 438.847 181.526L477.295 173.251C478.574 172.995 479.411 171.752 479.155 170.473C478.899 169.195 477.656 168.358 476.377 168.614L437.929 176.889C436.65 177.145 435.813 178.388 436.069 179.667C436.29 180.794 437.278 181.573 438.382 181.573Z" fill="#DE4A65"/>
<path d="M436.034 240.059C436.034 240.059 434.489 228.424 418.205 227.657C401.921 226.879 402.503 233.283 390.101 233.283C377.7 233.283 379.443 229.215 363.159 229.215C346.876 229.215 342.227 245.498 342.227 245.498C340.17 259.248 345.469 269.302 358.592 271.405C359.417 258.272 373.271 247.823 390.299 247.823C407.326 247.823 420.344 257.632 421.924 270.185C445.879 266.652 436.034 240.07 436.034 240.07" fill="#3F0D4A"/>
<path d="M390.287 247.823C373.26 247.823 359.405 258.283 358.58 271.405C360.254 271.673 362.009 271.847 363.926 271.847C380.989 271.847 378.281 265.954 391.066 265.455C405.792 264.873 402.886 272.626 421.297 270.301C421.517 270.278 421.692 270.208 421.913 270.173C420.332 257.621 406.78 247.811 390.287 247.811" fill="#DE4A65"/>
</g>
<defs>
<clipPath id="clip0_11025_934">
<rect width="927.173" height="1300" fill="white" transform="scale(1.00077)"/>
</clipPath>
</defs>
</svg>
